# Blender 4.1.1
# www.blender.org
mtllib Tv Stand.mtl
o SM_TVStand
v 0.523649 0.000001 -0.512862
v 0.523649 0.000001 -0.512862
v 0.523649 0.000001 -0.512862
v 0.532773 0.807658 -0.521986
v 0.532773 0.807658 -0.521986
v 0.532773 0.807658 -0.521986
v 0.523649 0.000001 -0.457746
v 0.523649 0.000001 -0.457746
v 0.523649 0.000001 -0.457746
v 0.532773 0.807658 -0.448622
v 0.532773 0.807658 -0.448622
v 0.532773 0.807658 -0.448622
v 0.468533 0.000001 -0.512862
v 0.468533 0.000001 -0.512862
v 0.468533 0.000001 -0.512862
v 0.459410 0.807658 -0.521986
v 0.459410 0.807658 -0.521986
v 0.459410 0.807658 -0.521986
v 0.468533 0.000001 -0.457746
v 0.468533 0.000001 -0.457746
v 0.468533 0.000001 -0.457746
v 0.459410 0.807658 -0.448622
v 0.459410 0.807658 -0.448622
v 0.459410 0.807658 -0.448622
v 0.532773 0.073808 -0.521986
v 0.532773 0.073808 -0.521986
v 0.532773 0.073808 -0.521986
v 0.532773 0.073808 -0.521986
v 0.532773 0.073808 -0.448622
v 0.532773 0.073808 -0.448622
v 0.532773 0.073808 -0.448622
v 0.532773 0.073808 -0.448622
v 0.459410 0.073808 -0.448622
v 0.459410 0.073808 -0.448622
v 0.459410 0.073808 -0.448622
v 0.459410 0.073808 -0.448622
v 0.459410 0.073808 -0.521986
v 0.459410 0.073808 -0.521986
v 0.459410 0.073808 -0.521986
v 0.459410 0.073808 -0.521986
v -0.596059 0.865204 0.565157
v -0.596059 0.865204 0.565157
v -0.596059 0.865204 0.565157
v -0.596059 0.807658 0.565157
v -0.596059 0.807658 0.565157
v -0.596059 0.807658 0.565157
v -0.596059 0.865204 -0.565157
v -0.596059 0.865204 -0.565157
v -0.596059 0.865204 -0.565157
v -0.596059 0.807658 -0.565157
v -0.596059 0.807658 -0.565157
v -0.596059 0.807658 -0.565157
v 0.596058 0.865204 0.565157
v 0.596058 0.865204 0.565157
v 0.596058 0.865204 0.565157
v 0.596058 0.807658 0.565157
v 0.596058 0.807658 0.565157
v 0.596058 0.807658 0.565157
v 0.596058 0.865204 -0.565157
v 0.596058 0.865204 -0.565157
v 0.596058 0.865204 -0.565157
v 0.596058 0.807658 -0.565157
v 0.596058 0.807658 -0.565157
v 0.596058 0.807658 -0.565157
v -0.523650 0.000001 0.512862
v -0.523650 0.000001 0.512862
v -0.523650 0.000001 0.512862
v -0.532773 0.807658 0.521986
v -0.532773 0.807658 0.521986
v -0.532773 0.807658 0.521986
v -0.523650 0.000001 0.457746
v -0.523650 0.000001 0.457746
v -0.523650 0.000001 0.457746
v -0.532773 0.807658 0.448622
v -0.532773 0.807658 0.448622
v -0.532773 0.807658 0.448622
v -0.468533 0.000001 0.512862
v -0.468533 0.000001 0.512862
v -0.468533 0.000001 0.512862
v -0.459410 0.807658 0.521986
v -0.459410 0.807658 0.521986
v -0.459410 0.807658 0.521986
v -0.468533 0.000001 0.457746
v -0.468533 0.000001 0.457746
v -0.468533 0.000001 0.457746
v -0.459410 0.807658 0.448622
v -0.459410 0.807658 0.448622
v -0.459410 0.807658 0.448622
v -0.532773 0.073808 0.521986
v -0.532773 0.073808 0.521986
v -0.532773 0.073808 0.521986
v -0.532773 0.073808 0.521986
v -0.532773 0.073808 0.448622
v -0.532773 0.073808 0.448622
v -0.532773 0.073808 0.448622
v -0.532773 0.073808 0.448622
v -0.459410 0.073808 0.448622
v -0.459410 0.073808 0.448622
v -0.459410 0.073808 0.448622
v -0.459410 0.073808 0.448622
v -0.459410 0.073808 0.521986
v -0.459410 0.073808 0.521986
v -0.459410 0.073808 0.521986
v -0.459410 0.073808 0.521986
v 0.523649 0.000001 0.512862
v 0.523649 0.000001 0.512862
v 0.523649 0.000001 0.512862
v 0.532773 0.807658 0.521986
v 0.532773 0.807658 0.521986
v 0.532773 0.807658 0.521986
v 0.523649 0.000001 0.457746
v 0.523649 0.000001 0.457746
v 0.523649 0.000001 0.457746
v 0.532773 0.807658 0.448622
v 0.532773 0.807658 0.448622
v 0.532773 0.807658 0.448622
v 0.468533 0.000001 0.512862
v 0.468533 0.000001 0.512862
v 0.468533 0.000001 0.512862
v 0.459410 0.807658 0.521986
v 0.459410 0.807658 0.521986
v 0.459410 0.807658 0.521986
v 0.468533 0.000001 0.457746
v 0.468533 0.000001 0.457746
v 0.468533 0.000001 0.457746
v 0.459410 0.807658 0.448622
v 0.459410 0.807658 0.448622
v 0.459410 0.807658 0.448622
v 0.532773 0.073808 0.521986
v 0.532773 0.073808 0.521986
v 0.532773 0.073808 0.521986
v 0.532773 0.073808 0.521986
v 0.532773 0.073808 0.448622
v 0.532773 0.073808 0.448622
v 0.532773 0.073808 0.448622
v 0.532773 0.073808 0.448622
v 0.459410 0.073808 0.448622
v 0.459410 0.073808 0.448622
v 0.459410 0.073808 0.448622
v 0.459410 0.073808 0.448622
v 0.459410 0.073808 0.521986
v 0.459410 0.073808 0.521986
v 0.459410 0.073808 0.521986
v 0.459410 0.073808 0.521986
v -0.523650 0.000001 -0.512862
v -0.523650 0.000001 -0.512862
v -0.523650 0.000001 -0.512862
v -0.532773 0.807658 -0.521986
v -0.532773 0.807658 -0.521986
v -0.532773 0.807658 -0.521986
v -0.523650 0.000001 -0.457746
v -0.523650 0.000001 -0.457746
v -0.523650 0.000001 -0.457746
v -0.532773 0.807658 -0.448622
v -0.532773 0.807658 -0.448622
v -0.532773 0.807658 -0.448622
v -0.468533 0.000001 -0.512862
v -0.468533 0.000001 -0.512862
v -0.468533 0.000001 -0.512862
v -0.459410 0.807658 -0.521986
v -0.459410 0.807658 -0.521986
v -0.459410 0.807658 -0.521986
v -0.468533 0.000001 -0.457746
v -0.468533 0.000001 -0.457746
v -0.468533 0.000001 -0.457746
v -0.459410 0.807658 -0.448622
v -0.459410 0.807658 -0.448622
v -0.459410 0.807658 -0.448622
v -0.532773 0.073808 -0.521986
v -0.532773 0.073808 -0.521986
v -0.532773 0.073808 -0.521986
v -0.532773 0.073808 -0.521986
v -0.532773 0.073808 -0.448622
v -0.532773 0.073808 -0.448622
v -0.532773 0.073808 -0.448622
v -0.532773 0.073808 -0.448622
v -0.459410 0.073808 -0.448622
v -0.459410 0.073808 -0.448622
v -0.459410 0.073808 -0.448622
v -0.459410 0.073808 -0.448622
v -0.459410 0.073808 -0.521986
v -0.459410 0.073808 -0.521986
v -0.459410 0.073808 -0.521986
v -0.459410 0.073808 -0.521986
v -0.425498 0.673215 0.556746
v -0.425498 0.783462 0.556746
v -0.446233 0.652480 0.058179
v -0.446233 0.652480 0.058179
v -0.446233 0.652480 0.058179
v -0.446233 0.804196 0.058179
v -0.446233 0.804196 0.058179
v -0.446233 0.804196 0.058179
v 0.425498 0.673215 0.556746
v 0.425498 0.783462 0.556746
v 0.446233 0.652480 0.058179
v 0.446233 0.652480 0.058179
v 0.446233 0.652480 0.058179
v 0.446233 0.804196 0.058179
v 0.446233 0.804196 0.058179
v 0.446233 0.804196 0.058179
v 0.037310 0.652480 0.058179
v 0.037310 0.652480 0.058179
v -0.037310 0.652480 0.058179
v -0.037310 0.652480 0.058179
v -0.037310 0.804196 0.058179
v -0.037310 0.804196 0.058179
v 0.037310 0.804196 0.058179
v 0.037310 0.804196 0.058179
v -0.058044 0.673215 0.556746
v 0.058044 0.673215 0.556746
v 0.058044 0.783462 0.556746
v -0.058044 0.783462 0.556746
v 0.000000 0.652480 0.058179
v 0.000000 0.652480 0.058179
v 0.000000 0.804196 0.058179
v 0.000000 0.804196 0.058179
v 0.000000 0.652480 0.556746
v 0.000000 0.652480 0.556746
v 0.000000 0.804196 0.556746
v 0.000000 0.804196 0.556746
v -0.446233 0.652480 0.556746
v -0.446233 0.652480 0.556746
v -0.446233 0.652480 0.556746
v -0.446233 0.804196 0.556746
v -0.446233 0.804196 0.556746
v -0.446233 0.804196 0.556746
v 0.446233 0.804196 0.556746
v 0.446233 0.804196 0.556746
v 0.446233 0.804196 0.556746
v 0.446233 0.652480 0.556746
v 0.446233 0.652480 0.556746
v 0.446233 0.652480 0.556746
v 0.037310 0.652480 0.556746
v 0.037310 0.652480 0.556746
v -0.037310 0.804196 0.556746
v -0.037310 0.804196 0.556746
v -0.037310 0.652480 0.556746
v -0.037310 0.652480 0.556746
v 0.037310 0.804196 0.556746
v 0.037310 0.804196 0.556746
vn 1.0000 -0.0000 -0.0000
vn -0.0000 -0.0000 1.0000
vn -1.0000 -0.0000 -0.0000
vn -0.0000 -0.0000 -1.0000
vn -0.0000 -1.0000 -0.0000
vn -0.0000 1.0000 -0.0000
vn -0.0000 -0.1227 -0.9924
vn -0.9924 -0.1227 -0.0000
vn -0.0000 -0.1227 0.9924
vn 0.9924 -0.1227 -0.0000
vt 0.917835 0.264539
vt 0.917835 0.003695
vt 0.943944 0.003695
vt 0.943944 0.264539
vt 0.702213 0.696403
vt 0.702213 0.435331
vt 0.728321 0.435331
vt 0.728321 0.696403
vt 0.884337 0.264539
vt 0.884337 0.003695
vt 0.910446 0.003695
vt 0.910446 0.264539
vt 0.836205 0.696303
vt 0.836205 0.435331
vt 0.862313 0.435331
vt 0.862313 0.696303
vt 0.090305 0.760327
vt 0.090305 0.779942
vt 0.070691 0.779942
vt 0.070691 0.760327
vt 0.728321 0.756242
vt 0.702213 0.756242
vt 0.702213 0.730134
vt 0.728321 0.730134
vt 0.839452 0.722674
vt 0.859066 0.722674
vt 0.887584 0.290933
vt 0.907199 0.290933
vt 0.705460 0.722744
vt 0.725074 0.722744
vt 0.921082 0.290933
vt 0.940697 0.290933
vt 0.523891 0.837582
vt 0.523891 0.435331
vt 0.544346 0.435331
vt 0.544346 0.837582
vt 0.496037 0.859576
vt 0.496037 0.435331
vt 0.516502 0.435331
vt 0.516502 0.859576
vt 0.551736 0.837582
vt 0.551736 0.435331
vt 0.572190 0.435331
vt 0.572190 0.837582
vt 0.822977 0.427941
vt 0.822977 0.003695
vt 0.843450 0.003695
vt 0.843450 0.427941
vt 0.003695 0.003695
vt 0.405946 0.003695
vt 0.405946 0.427941
vt 0.003695 0.427941
vt 0.413336 0.003695
vt 0.815587 0.003695
vt 0.815587 0.427941
vt 0.413336 0.427941
vt 0.936699 0.696174
vt 0.936699 0.435331
vt 0.962807 0.435331
vt 0.962807 0.696174
vt 0.869703 0.696303
vt 0.869703 0.435331
vt 0.895811 0.435331
vt 0.895811 0.696303
vt 0.903201 0.696174
vt 0.903201 0.435331
vt 0.929309 0.435331
vt 0.929309 0.696174
vt 0.769209 0.696403
vt 0.769209 0.435331
vt 0.795317 0.435331
vt 0.795317 0.696403
vt 0.097695 0.779942
vt 0.097695 0.760327
vt 0.117310 0.760327
vt 0.117310 0.779942
vt 0.735711 0.730134
vt 0.761819 0.730134
vt 0.761819 0.756242
vt 0.735711 0.756242
vt 0.772456 0.722744
vt 0.792070 0.722744
vt 0.906448 0.722568
vt 0.926062 0.722568
vt 0.872950 0.722673
vt 0.892564 0.722673
vt 0.939946 0.722568
vt 0.959560 0.722568
vt 0.639186 0.880992
vt 0.613078 0.880992
vt 0.613078 0.620148
vt 0.639186 0.620148
vt 0.876948 0.264668
vt 0.850839 0.264668
vt 0.850839 0.003695
vt 0.876948 0.003695
vt 0.977442 0.264539
vt 0.951333 0.264539
vt 0.951333 0.003695
vt 0.977442 0.003695
vt 0.761819 0.696403
vt 0.735711 0.696403
vt 0.735711 0.435331
vt 0.761819 0.435331
vt 0.124699 0.760327
vt 0.144314 0.760327
vt 0.144314 0.779942
vt 0.124699 0.779942
vt 0.003695 0.760327
vt 0.029803 0.760327
vt 0.029803 0.786435
vt 0.003695 0.786435
vt 0.758572 0.722744
vt 0.738958 0.722744
vt 0.974195 0.290933
vt 0.954580 0.290933
vt 0.873701 0.291038
vt 0.854086 0.291038
vt 0.635939 0.907386
vt 0.616325 0.907386
vt 0.672684 0.880992
vt 0.646576 0.880992
vt 0.646576 0.620148
vt 0.672684 0.620148
vt 0.828815 0.696403
vt 0.802707 0.696403
vt 0.802707 0.435331
vt 0.828815 0.435331
vt 0.996305 0.696174
vt 0.970197 0.696174
vt 0.970197 0.435331
vt 0.996305 0.435331
vt 0.605688 0.881121
vt 0.579580 0.881121
vt 0.579580 0.620148
vt 0.605688 0.620148
vt 0.171318 0.779942
vt 0.151703 0.779942
vt 0.151703 0.760327
vt 0.171318 0.760327
vt 0.063301 0.786436
vt 0.037193 0.786436
vt 0.037193 0.760327
vt 0.063301 0.760327
vt 0.602441 0.907491
vt 0.582827 0.907491
vt 0.993058 0.722568
vt 0.973444 0.722568
vt 0.825568 0.722744
vt 0.805954 0.722744
vt 0.669437 0.907386
vt 0.649823 0.907386
vt 0.633506 0.612758
vt 0.579580 0.612758
vt 0.579580 0.435331
vt 0.633506 0.435331
vt 0.488647 0.580856
vt 0.434694 0.580856
vt 0.434694 0.435331
vt 0.488647 0.435331
vt 0.694823 0.612758
vt 0.640896 0.612758
vt 0.640896 0.435331
vt 0.694823 0.435331
vt 0.003695 0.580856
vt 0.003695 0.435331
vt 0.181123 0.435331
vt 0.181123 0.580856
vt 0.188513 0.580856
vt 0.188513 0.435331
vt 0.365941 0.435331
vt 0.365941 0.580856
vt 0.188513 0.752937
vt 0.188513 0.607412
vt 0.365941 0.607412
vt 0.365940 0.752937
vt 0.188513 0.594134
vt 0.365941 0.594134
vt 0.003695 0.752937
vt 0.003695 0.607412
vt 0.181123 0.607412
vt 0.181123 0.752937
vt 0.003695 0.594134
vt 0.181123 0.594134
vt 0.419928 0.614790
vt 0.427304 0.607412
vt 0.427304 0.752937
vt 0.419928 0.745559
vt 0.427304 0.594134
vt 0.373330 0.594134
vt 0.373330 0.580856
vt 0.427304 0.580856
vt 0.488647 0.752937
vt 0.434694 0.752937
vt 0.434694 0.607412
vt 0.488647 0.607412
vt 0.488647 0.594134
vt 0.434694 0.594134
vt 0.373330 0.607412
vt 0.419928 0.442709
vt 0.380707 0.442709
vt 0.373330 0.435331
vt 0.427304 0.435331
vt 0.380707 0.745559
vt 0.373330 0.752937
vt 0.380707 0.573477
vt 0.419928 0.573477
vt 0.380707 0.614790
s 0
usemtl M_PSX_Wood
f 28/1/1 6/2/1 12/3/1
f 28/1/1 12/3/1 32/4/1
f 29/5/2 10/6/2 22/7/2
f 29/5/2 22/7/2 33/8/2
f 36/9/3 24/10/3 18/11/3
f 36/9/3 18/11/3 40/12/3
f 37/13/4 16/14/4 4/15/4
f 37/13/4 4/15/4 25/16/4
f 8/17/5 20/18/5 14/19/5
f 8/17/5 14/19/5 2/20/5
f 23/21/6 11/22/6 5/23/6
f 23/21/6 5/23/6 17/24/6
f 13/25/7 38/13/7 26/16/7
f 13/25/7 26/16/7 1/26/7
f 21/27/8 35/9/8 39/12/8
f 21/27/8 39/12/8 15/28/8
f 7/29/9 30/5/9 34/8/9
f 7/29/9 34/8/9 19/30/9
f 3/31/10 27/1/10 31/4/10
f 3/31/10 31/4/10 9/32/10
f 43/33/3 49/34/3 52/35/3
f 43/33/3 52/35/3 46/36/3
f 47/37/4 59/38/4 62/39/4
f 47/37/4 62/39/4 50/40/4
f 61/41/1 55/42/1 58/43/1
f 61/41/1 58/43/1 64/44/1
f 53/45/2 41/46/2 44/47/2
f 53/45/2 44/47/2 56/48/2
f 48/49/6 42/50/6 54/51/6
f 48/49/6 54/51/6 60/52/6
f 63/53/5 57/54/5 45/55/5
f 63/53/5 45/55/5 51/56/5
f 92/57/3 70/58/3 76/59/3
f 92/57/3 76/59/3 96/60/3
f 93/61/4 74/62/4 86/63/4
f 93/61/4 86/63/4 97/64/4
f 100/65/1 88/66/1 82/67/1
f 100/65/1 82/67/1 104/68/1
f 101/69/2 80/70/2 68/71/2
f 101/69/2 68/71/2 89/72/2
f 72/73/5 84/74/5 78/75/5
f 72/73/5 78/75/5 66/76/5
f 87/77/6 75/78/6 69/79/6
f 87/77/6 69/79/6 81/80/6
f 77/81/9 102/69/9 90/72/9
f 77/81/9 90/72/9 65/82/9
f 85/83/10 99/65/10 103/68/10
f 85/83/10 103/68/10 79/84/10
f 71/85/7 94/61/7 98/64/7
f 71/85/7 98/64/7 83/86/7
f 67/87/8 91/57/8 95/60/8
f 67/87/8 95/60/8 73/88/8
f 132/89/1 136/90/1 116/91/1
f 132/89/1 116/91/1 110/92/1
f 133/93/4 137/94/4 126/95/4
f 133/93/4 126/95/4 114/96/4
f 140/97/3 144/98/3 122/99/3
f 140/97/3 122/99/3 128/100/3
f 141/101/2 129/102/2 108/103/2
f 141/101/2 108/103/2 120/104/2
f 112/105/5 106/106/5 118/107/5
f 112/105/5 118/107/5 124/108/5
f 127/109/6 121/110/6 109/111/6
f 127/109/6 109/111/6 115/112/6
f 117/113/9 105/114/9 130/102/9
f 117/113/9 130/102/9 142/101/9
f 125/115/8 119/116/8 143/98/8
f 125/115/8 143/98/8 139/97/8
f 111/117/7 123/118/7 138/94/7
f 111/117/7 138/94/7 134/93/7
f 107/119/10 113/120/10 135/90/10
f 107/119/10 135/90/10 131/89/10
f 172/121/3 176/122/3 156/123/3
f 172/121/3 156/123/3 150/124/3
f 173/125/2 177/126/2 166/127/2
f 173/125/2 166/127/2 154/128/2
f 180/129/1 184/130/1 162/131/1
f 180/129/1 162/131/1 168/132/1
f 181/133/4 169/134/4 148/135/4
f 181/133/4 148/135/4 160/136/4
f 152/137/5 146/138/5 158/139/5
f 152/137/5 158/139/5 164/140/5
f 167/141/6 161/142/6 149/143/6
f 167/141/6 149/143/6 155/144/6
f 157/145/7 145/146/7 170/134/7
f 157/145/7 170/134/7 182/133/7
f 165/147/10 159/148/10 183/130/10
f 165/147/10 183/130/10 179/129/10
f 151/149/9 163/150/9 178/126/9
f 151/149/9 178/126/9 174/125/9
f 147/151/8 153/152/8 175/122/8
f 147/151/8 175/122/8 171/121/8
f 223/153/3 226/154/3 192/155/3
f 223/153/3 192/155/3 189/156/3
f 201/157/4 207/158/4 198/159/4
f 201/157/4 198/159/4 195/160/4
f 197/161/1 200/162/1 229/163/1
f 197/161/1 229/163/1 232/164/1
f 202/165/5 196/166/5 231/167/5
f 202/165/5 231/167/5 234/168/5
f 206/169/6 191/170/6 225/171/6
f 206/169/6 225/171/6 236/172/6
f 199/173/6 208/174/6 240/175/6
f 199/173/6 240/175/6 228/176/6
f 216/177/6 206/169/6 236/172/6
f 216/177/6 236/172/6 220/178/6
f 188/179/5 204/180/5 238/181/5
f 188/179/5 238/181/5 222/182/5
f 214/183/5 202/165/5 234/168/5
f 214/183/5 234/168/5 218/184/5
f 210/185/2 233/186/2 230/187/2
f 210/185/2 230/187/2 193/188/2
f 217/189/2 219/190/2 235/191/2
f 217/189/2 235/191/2 237/192/2
f 187/193/4 190/194/4 205/195/4
f 187/193/4 205/195/4 203/196/4
f 213/197/4 215/198/4 207/158/4
f 213/197/4 207/158/4 201/157/4
f 203/196/4 205/195/4 215/198/4
f 203/196/4 215/198/4 213/197/4
f 233/186/2 239/199/2 219/190/2
f 233/186/2 219/190/2 217/189/2
f 204/180/5 214/183/5 218/184/5
f 204/180/5 218/184/5 238/181/5
f 208/174/6 216/177/6 220/178/6
f 208/174/6 220/178/6 240/175/6
f 185/200/2 186/201/2 224/202/2
f 185/200/2 224/202/2 221/203/2
f 194/204/2 193/188/2 230/187/2
f 194/204/2 230/187/2 227/205/2
f 212/206/2 235/191/2 224/202/2
f 212/206/2 224/202/2 186/201/2
f 185/200/2 221/203/2 237/192/2
f 185/200/2 237/192/2 209/207/2
f 194/204/2 227/205/2 239/199/2
f 194/204/2 239/199/2 211/208/2
f 210/185/2 211/208/2 239/199/2
f 210/185/2 239/199/2 233/186/2
f 212/206/2 209/207/2 237/192/2
f 212/206/2 237/192/2 235/191/2
o SM_Drawer_01
v -0.177282 0.721669 0.585470
v -0.177282 0.721669 0.585470
v -0.177282 0.721669 0.585470
v -0.177282 0.735008 0.585470
v -0.177282 0.735008 0.585470
v -0.177282 0.735008 0.585470
v -0.177282 0.721669 0.571069
v -0.177282 0.721669 0.571069
v -0.177282 0.721669 0.571069
v -0.177282 0.735008 0.571069
v -0.177282 0.735008 0.571069
v -0.177282 0.735008 0.571069
v -0.306261 0.721669 0.585470
v -0.306261 0.721669 0.585470
v -0.306261 0.721669 0.585470
v -0.306261 0.735008 0.585470
v -0.306261 0.735008 0.585470
v -0.306261 0.735008 0.585470
v -0.306261 0.721669 0.571069
v -0.306261 0.721669 0.571069
v -0.306261 0.721669 0.571069
v -0.306261 0.735008 0.571069
v -0.306261 0.735008 0.571069
v -0.306261 0.735008 0.571069
v -0.170211 0.721669 0.592541
v -0.170211 0.721669 0.592541
v -0.170211 0.721669 0.592541
v -0.170211 0.735008 0.592541
v -0.170211 0.735008 0.592541
v -0.170211 0.735008 0.592541
v -0.167282 0.721669 0.571069
v -0.167282 0.721669 0.571069
v -0.167282 0.721669 0.571069
v -0.167282 0.735008 0.571069
v -0.167282 0.735008 0.571069
v -0.167282 0.735008 0.571069
v -0.313332 0.721669 0.592541
v -0.313332 0.721669 0.592541
v -0.313332 0.721669 0.592541
v -0.313332 0.735008 0.592541
v -0.313332 0.735008 0.592541
v -0.313332 0.735008 0.592541
v -0.316261 0.721669 0.571069
v -0.316261 0.721669 0.571069
v -0.316261 0.721669 0.571069
v -0.316261 0.735008 0.571069
v -0.316261 0.735008 0.571069
v -0.316261 0.735008 0.571069
v -0.413951 0.684762 0.559521
v -0.413951 0.684762 0.559521
v -0.413951 0.684762 0.559521
v -0.411356 0.783462 0.556926
v -0.411356 0.783462 0.556926
v -0.411356 0.783462 0.556926
v -0.069591 0.684762 0.559521
v -0.069591 0.684762 0.559521
v -0.069591 0.684762 0.559521
v -0.072186 0.783462 0.556926
v -0.072186 0.783462 0.556926
v -0.072186 0.783462 0.556926
v -0.413951 0.684762 0.100409
v -0.413951 0.684762 0.100409
v -0.413951 0.684762 0.100409
v -0.411356 0.783462 0.103005
v -0.411356 0.783462 0.103005
v -0.411356 0.783462 0.103005
v -0.069591 0.684762 0.100409
v -0.069591 0.684762 0.100409
v -0.069591 0.684762 0.100409
v -0.072186 0.783462 0.103005
v -0.072186 0.783462 0.103005
v -0.072186 0.783462 0.103005
v -0.425498 0.673215 0.571069
v -0.425498 0.673215 0.571069
v -0.425498 0.673215 0.571069
v -0.425498 0.783462 0.571069
v -0.425498 0.783462 0.571069
v -0.425498 0.783462 0.571069
v -0.058044 0.673215 0.571069
v -0.058044 0.673215 0.571069
v -0.058044 0.673215 0.571069
v -0.058044 0.783462 0.571069
v -0.058044 0.783462 0.571069
v -0.058044 0.783462 0.571069
v -0.425498 0.673215 0.088862
v -0.425498 0.673215 0.088862
v -0.425498 0.673215 0.088862
v -0.425498 0.783462 0.088862
v -0.425498 0.783462 0.088862
v -0.425498 0.783462 0.088862
v -0.058044 0.673215 0.088862
v -0.058044 0.673215 0.088862
v -0.058044 0.673215 0.088862
v -0.058044 0.783462 0.088862
v -0.058044 0.783462 0.088862
v -0.058044 0.783462 0.088862
vn -1.0000 -0.0000 -0.0000
vn 1.0000 -0.0000 -0.0000
vn -0.0000 -0.0000 -1.0000
vn 0.9908 -0.0000 0.1352
vn -0.9908 -0.0000 0.1352
vn -0.0000 -0.0000 1.0000
vn -0.0000 -1.0000 -0.0000
vn -0.0000 1.0000 -0.0000
vn -0.0000 -0.0263 -0.9997
vn -0.0000 -0.0263 0.9997
vn 0.9997 -0.0263 -0.0000
vn -0.9997 -0.0263 -0.0000
vt 0.620304 0.584699
vt 0.625812 0.584698
vt 0.625812 0.590642
vt 0.620304 0.590643
vt 0.625812 0.582071
vt 0.620304 0.582070
vt 0.620304 0.576127
vt 0.625812 0.576128
vt 0.617677 0.606321
vt 0.612169 0.606321
vt 0.612169 0.553060
vt 0.617677 0.553060
vt 0.620304 0.561967
vt 0.620304 0.553064
vt 0.625812 0.553060
vt 0.625812 0.561963
vt 0.625812 0.564597
vt 0.625812 0.573500
vt 0.620304 0.573496
vt 0.620304 0.564593
vt 0.609543 0.553060
vt 0.609543 0.612161
vt 0.604035 0.612161
vt 0.604035 0.553060
vt 0.618448 0.546304
vt 0.624395 0.546304
vt 0.624395 0.550434
vt 0.615528 0.549224
vt 0.612902 0.493044
vt 0.606955 0.493044
vt 0.604035 0.490124
vt 0.612902 0.488914
vt 0.620304 0.606912
vt 0.620304 0.601404
vt 0.624433 0.601404
vt 0.624433 0.606912
vt 0.624433 0.593270
vt 0.624433 0.598778
vt 0.620304 0.598778
vt 0.620304 0.593270
vt 0.624395 0.493044
vt 0.618448 0.493044
vt 0.615528 0.490124
vt 0.624395 0.488914
vt 0.606955 0.546304
vt 0.612902 0.546304
vt 0.612902 0.550434
vt 0.604035 0.549224
vt 0.765308 0.441529
vt 0.765308 0.583728
vt 0.724545 0.582657
vt 0.724545 0.442600
vt 0.721919 0.583728
vt 0.681153 0.582657
vt 0.681153 0.442600
vt 0.721919 0.441529
vt 0.469103 0.490012
vt 0.509866 0.488914
vt 0.509866 0.678391
vt 0.469103 0.677347
vt 0.512493 0.488914
vt 0.553256 0.490012
vt 0.553256 0.677347
vt 0.512493 0.678391
vt 0.324276 0.488914
vt 0.466476 0.488914
vt 0.466476 0.678500
vt 0.324276 0.678500
vt 0.726677 0.438902
vt 0.681153 0.438902
vt 0.681153 0.287166
vt 0.726677 0.287166
vt 0.601408 0.488914
vt 0.601408 0.640651
vt 0.555883 0.640651
vt 0.555883 0.488914
vt 0.678527 0.287166
vt 0.678527 0.486173
vt 0.633002 0.486184
vt 0.633002 0.287176
vt 0.678527 0.488820
vt 0.678527 0.687828
vt 0.633002 0.687818
vt 0.633002 0.488810
vt 0.630375 0.287166
vt 0.630375 0.486287
vt 0.478639 0.486287
vt 0.478639 0.287166
vt 0.470172 0.293005
vt 0.330116 0.293005
vt 0.324276 0.287165
vt 0.476012 0.287166
vt 0.330116 0.480448
vt 0.470172 0.480448
vt 0.476012 0.486287
vt 0.324276 0.486287
s 0
usemtl M_PSX_Wood
f 243/209/11 246/210/11 252/211/11
f 243/209/11 252/211/11 249/212/11
f 261/213/12 264/214/12 258/215/12
f 261/213/12 258/215/12 255/216/12
f 253/217/13 256/218/13 244/219/13
f 253/217/13 244/219/13 241/220/13
f 267/221/14 273/222/14 276/223/14
f 267/221/14 276/223/14 270/224/14
f 285/225/15 279/226/15 282/227/15
s 1
f 285/225/15 282/227/15 288/228/15
s 0
f 277/229/16 265/230/16 268/231/16
f 277/229/16 268/231/16 280/232/16
f 242/233/17 248/234/17 272/235/17
f 242/233/17 272/235/17 266/236/17
f 251/237/18 245/238/18 269/239/18
f 251/237/18 269/239/18 275/240/18
f 247/241/13 250/242/13 274/243/13
f 247/241/13 274/243/13 271/244/13
f 262/245/13 259/246/13 283/247/13
f 262/245/13 283/247/13 286/248/13
f 260/249/17 254/250/17 278/251/17
f 260/249/17 278/251/17 284/252/17
f 257/253/18 263/254/18 287/255/18
f 257/253/18 287/255/18 281/256/18
f 254/250/17 242/233/17 266/236/17
f 254/250/17 266/236/17 278/251/17
f 245/238/18 257/253/18 281/256/18
f 245/238/18 281/256/18 269/239/18
f 296/257/19 290/258/19 293/259/19
f 296/257/19 293/259/19 299/260/19
f 308/261/20 311/262/20 305/263/20
f 308/261/20 305/263/20 302/264/20
f 294/265/21 291/266/21 303/267/21
f 294/265/21 303/267/21 306/268/21
f 297/269/22 300/270/22 312/271/22
f 297/269/22 312/271/22 309/272/22
f 289/273/18 295/274/18 307/275/18
f 289/273/18 307/275/18 301/276/18
f 319/277/16 322/278/16 316/279/16
f 319/277/16 316/279/16 313/280/16
f 331/281/13 325/282/13 328/283/13
f 331/281/13 328/283/13 334/284/13
f 318/285/11 330/286/11 327/287/11
f 318/285/11 327/287/11 315/288/11
f 321/289/12 333/290/12 336/291/12
f 321/289/12 336/291/12 324/292/12
f 314/293/17 326/294/17 332/295/17
f 314/293/17 332/295/17 320/296/17
f 298/297/18 292/298/18 317/299/18
f 298/297/18 317/299/18 323/300/18
f 304/301/18 310/302/18 335/303/18
f 304/301/18 335/303/18 329/304/18
f 292/298/18 304/301/18 329/304/18
f 292/298/18 329/304/18 317/299/18
f 310/302/18 298/297/18 323/300/18
f 310/302/18 323/300/18 335/303/18
o SM_Drawer_02
v 0.177282 0.721669 0.585470
v 0.177282 0.721669 0.585470
v 0.177282 0.721669 0.585470
v 0.177282 0.735008 0.585470
v 0.177282 0.735008 0.585470
v 0.177282 0.735008 0.585470
v 0.177282 0.721669 0.571069
v 0.177282 0.721669 0.571069
v 0.177282 0.721669 0.571069
v 0.177282 0.735008 0.571069
v 0.177282 0.735008 0.571069
v 0.177282 0.735008 0.571069
v 0.306261 0.721669 0.585470
v 0.306261 0.721669 0.585470
v 0.306261 0.721669 0.585470
v 0.306261 0.735008 0.585470
v 0.306261 0.735008 0.585470
v 0.306261 0.735008 0.585470
v 0.306261 0.721669 0.571069
v 0.306261 0.721669 0.571069
v 0.306261 0.721669 0.571069
v 0.306261 0.735008 0.571069
v 0.306261 0.735008 0.571069
v 0.306261 0.735008 0.571069
v 0.170211 0.721669 0.592541
v 0.170211 0.721669 0.592541
v 0.170211 0.721669 0.592541
v 0.170211 0.735008 0.592541
v 0.170211 0.735008 0.592541
v 0.170211 0.735008 0.592541
v 0.167282 0.721669 0.571069
v 0.167282 0.721669 0.571069
v 0.167282 0.721669 0.571069
v 0.167282 0.735008 0.571069
v 0.167282 0.735008 0.571069
v 0.167282 0.735008 0.571069
v 0.313332 0.721669 0.592541
v 0.313332 0.721669 0.592541
v 0.313332 0.721669 0.592541
v 0.313332 0.735008 0.592541
v 0.313332 0.735008 0.592541
v 0.313332 0.735008 0.592541
v 0.316261 0.721669 0.571069
v 0.316261 0.721669 0.571069
v 0.316261 0.721669 0.571069
v 0.316261 0.735008 0.571069
v 0.316261 0.735008 0.571069
v 0.316261 0.735008 0.571069
v 0.413951 0.684762 0.559521
v 0.413951 0.684762 0.559521
v 0.413951 0.684762 0.559521
v 0.411356 0.783462 0.556926
v 0.411356 0.783462 0.556926
v 0.411356 0.783462 0.556926
v 0.069591 0.684762 0.559521
v 0.069591 0.684762 0.559521
v 0.069591 0.684762 0.559521
v 0.072186 0.783462 0.556926
v 0.072186 0.783462 0.556926
v 0.072186 0.783462 0.556926
v 0.413951 0.684762 0.100409
v 0.413951 0.684762 0.100409
v 0.413951 0.684762 0.100409
v 0.411356 0.783462 0.103005
v 0.411356 0.783462 0.103005
v 0.411356 0.783462 0.103005
v 0.069591 0.684762 0.100409
v 0.069591 0.684762 0.100409
v 0.069591 0.684762 0.100409
v 0.072186 0.783462 0.103005
v 0.072186 0.783462 0.103005
v 0.072186 0.783462 0.103005
v 0.425498 0.673215 0.571069
v 0.425498 0.673215 0.571069
v 0.425498 0.673215 0.571069
v 0.425498 0.783462 0.571069
v 0.425498 0.783462 0.571069
v 0.425498 0.783462 0.571069
v 0.058044 0.673215 0.571069
v 0.058044 0.673215 0.571069
v 0.058044 0.673215 0.571069
v 0.058044 0.783462 0.571069
v 0.058044 0.783462 0.571069
v 0.058044 0.783462 0.571069
v 0.425498 0.673215 0.088862
v 0.425498 0.673215 0.088862
v 0.425498 0.673215 0.088862
v 0.425498 0.783462 0.088862
v 0.425498 0.783462 0.088862
v 0.425498 0.783462 0.088862
v 0.058044 0.673215 0.088862
v 0.058044 0.673215 0.088862
v 0.058044 0.673215 0.088862
v 0.058044 0.783462 0.088862
v 0.058044 0.783462 0.088862
v 0.058044 0.783462 0.088862
vn 1.0000 -0.0000 -0.0000
vn -1.0000 -0.0000 -0.0000
vn -0.0000 -0.0000 -1.0000
vn -0.9908 -0.0000 0.1352
vn 0.9908 -0.0000 0.1352
vn -0.0000 -0.0000 1.0000
vn -0.0000 -1.0000 -0.0000
vn -0.0000 1.0000 -0.0000
vn -0.0000 -0.0263 -0.9997
vn -0.0000 -0.0263 0.9997
vn -0.9997 -0.0263 -0.0000
vn 0.9997 -0.0263 -0.0000
vt 0.421879 0.431230
vt 0.427387 0.431229
vt 0.427387 0.437172
vt 0.421879 0.437174
vt 0.427387 0.428602
vt 0.421879 0.428601
vt 0.421879 0.422657
vt 0.427387 0.422659
vt 0.419252 0.452852
vt 0.413744 0.452852
vt 0.413744 0.399591
vt 0.419252 0.399591
vt 0.421879 0.408497
vt 0.421879 0.399595
vt 0.427387 0.399591
vt 0.427387 0.408494
vt 0.427387 0.411128
vt 0.427387 0.420031
vt 0.421879 0.420027
vt 0.421879 0.411124
vt 0.411117 0.399591
vt 0.411117 0.458691
vt 0.405610 0.458691
vt 0.405610 0.399591
vt 0.420023 0.392835
vt 0.425970 0.392835
vt 0.425970 0.396964
vt 0.417103 0.395755
vt 0.414476 0.339574
vt 0.408529 0.339574
vt 0.405610 0.336654
vt 0.414476 0.335445
vt 0.421879 0.453443
vt 0.421879 0.447935
vt 0.426008 0.447935
vt 0.426008 0.453443
vt 0.426008 0.439800
vt 0.426008 0.445308
vt 0.421879 0.445308
vt 0.421879 0.439800
vt 0.425970 0.339574
vt 0.420023 0.339574
vt 0.417103 0.336654
vt 0.425970 0.335445
vt 0.408529 0.392835
vt 0.414476 0.392835
vt 0.414476 0.396964
vt 0.405610 0.395755
vt 0.566883 0.288059
vt 0.566883 0.430259
vt 0.526120 0.429187
vt 0.526120 0.289131
vt 0.523493 0.430259
vt 0.482728 0.429187
vt 0.482728 0.289131
vt 0.523493 0.288059
vt 0.270677 0.336543
vt 0.311441 0.335445
vt 0.311441 0.524922
vt 0.270677 0.523878
vt 0.314068 0.335445
vt 0.354831 0.336543
vt 0.354831 0.523878
vt 0.314068 0.524922
vt 0.125851 0.335445
vt 0.268051 0.335445
vt 0.268051 0.525030
vt 0.125851 0.525030
vt 0.528252 0.285432
vt 0.482728 0.285432
vt 0.482728 0.133696
vt 0.528252 0.133696
vt 0.402983 0.335445
vt 0.402983 0.487181
vt 0.357458 0.487181
vt 0.357458 0.335445
vt 0.480101 0.133696
vt 0.480101 0.332704
vt 0.434577 0.332714
vt 0.434577 0.133706
vt 0.480102 0.335351
vt 0.480102 0.534359
vt 0.434577 0.534349
vt 0.434577 0.335341
vt 0.431950 0.133696
vt 0.431950 0.332818
vt 0.280214 0.332818
vt 0.280214 0.133696
vt 0.271747 0.139536
vt 0.131691 0.139536
vt 0.125851 0.133696
vt 0.277587 0.133696
vt 0.131691 0.326978
vt 0.271747 0.326978
vt 0.277587 0.332818
vt 0.125851 0.332818
s 0
usemtl M_PSX_Wood
f 339/305/23 348/307/23 342/306/23
f 339/305/23 345/308/23 348/307/23
f 357/309/24 354/311/24 360/310/24
f 357/309/24 351/312/24 354/311/24
f 349/313/25 340/315/25 352/314/25
f 349/313/25 337/316/25 340/315/25
f 363/317/26 372/319/26 369/318/26
f 363/317/26 366/320/26 372/319/26
f 381/321/27 378/323/27 375/322/27
s 1
f 381/321/27 384/324/27 378/323/27
s 0
f 373/325/28 364/327/28 361/326/28
f 373/325/28 376/328/28 364/327/28
f 338/329/29 368/331/29 344/330/29
f 338/329/29 362/332/29 368/331/29
f 347/333/30 365/335/30 341/334/30
f 347/333/30 371/336/30 365/335/30
f 343/337/25 370/339/25 346/338/25
f 343/337/25 367/340/25 370/339/25
f 358/341/25 379/343/25 355/342/25
f 358/341/25 382/344/25 379/343/25
f 356/345/29 374/347/29 350/346/29
f 356/345/29 380/348/29 374/347/29
f 353/349/30 383/351/30 359/350/30
f 353/349/30 377/352/30 383/351/30
f 350/346/29 362/332/29 338/329/29
f 350/346/29 374/347/29 362/332/29
f 341/334/30 377/352/30 353/349/30
f 341/334/30 365/335/30 377/352/30
f 392/353/31 389/355/31 386/354/31
f 392/353/31 395/356/31 389/355/31
f 404/357/32 401/359/32 407/358/32
f 404/357/32 398/360/32 401/359/32
f 390/361/33 399/363/33 387/362/33
f 390/361/33 402/364/33 399/363/33
f 393/365/34 408/367/34 396/366/34
f 393/365/34 405/368/34 408/367/34
f 385/369/30 403/371/30 391/370/30
f 385/369/30 397/372/30 403/371/30
f 415/373/28 412/375/28 418/374/28
f 415/373/28 409/376/28 412/375/28
f 427/377/25 424/379/25 421/378/25
f 427/377/25 430/380/25 424/379/25
f 414/381/23 423/383/23 426/382/23
f 414/381/23 411/384/23 423/383/23
f 417/385/24 432/387/24 429/386/24
f 417/385/24 420/388/24 432/387/24
f 410/389/29 428/391/29 422/390/29
f 410/389/29 416/392/29 428/391/29
f 394/393/30 413/395/30 388/394/30
f 394/393/30 419/396/30 413/395/30
f 400/397/30 431/399/30 406/398/30
f 400/397/30 425/400/30 431/399/30
f 388/394/30 425/400/30 400/397/30
f 388/394/30 413/395/30 425/400/30
f 406/398/30 419/396/30 394/393/30
f 406/398/30 431/399/30 419/396/30
