# File produced by Open Asset Import Library (http://www.assimp.sf.net)
# (assimp v3.1.128981410)

mtllib handpump.mtl

# vertex positions
v -0.000001 243.363251 -24.142357
v 9.111779 244.374878 -21.997818
v 9.111778 3.104065 -21.997749
v -0.000001 4.115692 -24.142288
v 17.071198 4.115692 -17.071167
v 17.071198 243.363251 -17.071236
v 21.997780 244.374878 -9.111813
v 21.997780 3.104080 -9.111748
v 24.142317 4.115692 0.000029
v 24.142317 243.363251 -0.000038
v 21.997780 244.374878 9.111740
v 21.997780 3.104080 9.111809
v 17.071198 4.115707 17.071228
v 17.071198 243.363251 17.071159
v 9.111778 244.374878 21.997742
v 9.111779 3.104080 21.997810
v -0.000001 4.115707 24.142345
v -0.000001 243.363251 24.142279
v -9.111779 244.374878 21.997742
v -9.111780 3.104080 21.997810
v -17.071198 4.115707 17.071228
v -17.071198 243.363251 17.071159
v -21.997780 244.374878 9.111740
v -21.997780 3.104080 9.111809
v -24.142317 4.115692 0.000029
v -24.142317 243.363251 -0.000038
v -21.997780 244.374878 -9.111813
v -21.997780 3.104080 -9.111748
v -17.071198 4.115692 -17.071167
v -17.071198 243.363251 -17.071236
v -9.111780 244.374878 -21.997818
v -9.111779 3.104065 -21.997749
v -30.312096 242.253784 39.275364
v -30.312096 248.188614 39.275364
v -30.312096 248.188583 -39.590652
v -30.312096 242.253754 -39.590652
v 30.312096 248.188583 -39.590652
v 30.312096 242.253754 -39.590652
v 30.312096 248.188614 39.275364
v 30.312096 242.253784 39.275364
v -30.312096 192.773193 39.275379
v -30.312096 196.800110 39.275375
v -30.312096 196.800079 -39.590637
v -30.312096 192.773178 -39.590637
v 30.312096 196.800079 -39.590637
v 30.312096 192.773178 -39.590637
v 30.312096 196.800110 39.275375
v 30.312096 192.773193 39.275379
v -0.000000 194.195236 -18.613098
v -0.000000 193.937073 -97.100700
v 5.407058 195.633972 -98.562431
v 5.407058 196.434906 -18.613098
v 7.646735 201.220978 -105.072067
v 7.646735 201.841965 -18.613098
v 5.407058 204.820877 -108.476807
v 5.407058 207.249023 -18.613102
v -0.000000 207.759735 -111.304703
v -0.000000 209.488708 -18.613102
v -5.407058 204.820877 -108.476807
v -5.407058 207.249023 -18.613102
v -7.646735 201.220978 -105.072067
v -7.646735 201.841965 -18.613098
v -5.407058 195.633972 -98.562431
v -5.407058 196.434906 -18.613098
v -5.407058 166.074478 -101.527893
v -0.000000 166.074677 -99.288216
v 5.407058 166.074478 -101.527893
v 7.646735 166.073990 -106.934952
v 5.407058 166.073502 -112.342010
v -5.407058 166.073502 -112.342010
v -7.646735 166.073990 -106.934952
v -0.000000 166.073303 -114.581680
v -18.444836 246.703873 36.494049
v -18.444836 354.620361 82.231216
v -18.444836 360.182922 6.455563
v -18.444836 246.703842 -39.590652
v 18.444836 360.182922 6.455563
v 18.444836 246.703842 -39.590652
v 18.444836 354.620361 82.231216
v 18.444836 246.703873 36.494049
v -10.337269 306.654572 61.926323
v -10.337269 349.323059 80.048103
v 10.337269 306.654572 61.926323
v 9.794912 305.592712 67.537399
v -9.794912 305.592712 67.537399
v 10.337269 349.323059 80.048103
v 9.794912 346.022583 84.708382
v -9.794912 346.022583 84.708382
v -8.203287 344.756287 83.681793
v 8.203287 344.756287 83.681793
v -8.203287 306.858948 68.563988
v 8.203287 306.858948 68.563988
v 7.123925 319.018311 48.107410
v -7.123925 319.018311 48.107410
v -7.123925 351.929260 61.236069
v 7.123925 351.929260 61.236069
v -4.950365 193.692230 237.818329
v -4.950365 333.403320 47.770908
v -4.950365 329.375031 44.893555
v -4.950365 189.663971 234.940964
v 0.000000 189.663971 234.940964
v 0.000000 329.375031 44.893555
v 4.950365 329.375031 44.893555
v 4.950365 189.663971 234.940964
v 4.950365 193.692230 237.818329
v 4.950365 333.403320 47.770908
v 4.950365 337.431580 50.648254
v 4.950365 197.720505 240.695679
v 0.000000 197.720505 240.695679
v 0.000000 337.431580 50.648254
v -4.950365 337.431580 50.648254
v -4.950365 197.720505 240.695679
v -2.961970 196.102493 239.539917
v -0.000000 197.100861 240.253052
v -2.961970 191.281982 236.096710
v -0.000000 190.283630 235.383575
v -0.000000 157.759415 280.917297
v -2.961970 158.757782 281.630402
v 2.961970 191.281982 236.096710
v -4.188859 193.692245 237.818329
v 2.961970 196.102493 239.539917
v 4.188859 193.692245 237.818329
v 2.961970 158.757782 281.630402
v -0.000000 164.576630 285.786743
v 2.961970 163.578278 285.073608
v 4.188859 161.168030 283.352020
v 0.000000 161.168030 283.352051
v -4.188859 161.168030 283.352020
v -2.961970 163.578278 285.073608
v -38.172653 -2.468964 39.275433
v -38.172653 5.711334 39.275433
v -38.172653 5.711319 -39.590576
v -38.172653 -2.468994 -39.590576
v 38.172653 5.711319 -39.590576
v 38.172653 -2.468994 -39.590576
v 38.172653 5.711334 39.275433
v 38.172653 -2.468964 39.275433
v 0.000000 -0.695007 -228.390610
v 0.000000 21.635437 -228.390610
v 87.401321 21.635437 -211.005417
v 87.401321 -0.695007 -211.005417
v 192.159927 -0.694946 0.000031
v 192.159927 21.635498 0.000025
v 177.532623 21.635483 -73.536400
v 177.532623 -0.694977 -73.536392
v -161.496567 -0.695007 -161.496536
v -161.496567 21.635468 -161.496536
v -87.401321 21.635437 -211.005417
v -87.401321 -0.695007 -211.005417
v 161.496567 21.635468 -161.496536
v 161.496567 -0.695007 -161.496536
v 177.532623 -0.694931 73.536453
v 177.532623 21.635529 73.536446
v 211.005447 21.635483 -87.401291
v 211.005447 -0.694977 -87.401283
v 135.877579 -0.694916 135.877609
v 135.877579 21.635544 135.877609
v 228.390640 21.635498 0.000025
v 228.390640 -0.694946 0.000031
v 73.536423 -0.694901 177.532654
v 73.536423 21.635559 177.532654
v 211.005447 21.635529 87.401344
v 211.005447 -0.694931 87.401352
v 0.000000 -0.694901 192.159943
v 0.000000 21.635559 192.159943
v 161.496567 21.635559 161.496597
v 161.496567 -0.694916 161.496597
v -73.536423 -0.694901 177.532654
v -73.536423 21.635559 177.532654
v 87.401321 21.635559 211.005463
v 87.401321 -0.694885 211.005463
v -135.877579 -0.694916 135.877609
v -135.877579 21.635544 135.877609
v -73.536423 -0.695007 -177.532593
v -135.877579 -0.694992 -135.877548
v -177.532623 -0.694977 -73.536392
v -192.159927 -0.694946 0.000031
v -177.532623 -0.694931 73.536453
v 135.877579 -0.694992 -135.877548
v 73.536423 -0.695007 -177.532593
v 0.000000 -0.695007 -192.159897
v 73.536423 21.635452 -177.532593
v 135.877579 21.635468 -135.877548
v 0.000000 21.635559 228.390671
v -87.401321 21.635559 211.005463
v -73.536423 21.635452 -177.532593
v 0.000000 21.635452 -192.159897
v -135.877579 21.635468 -135.877548
v -211.005447 21.635483 -87.401291
v -177.532623 21.635483 -73.536400
v -228.390640 21.635498 0.000025
v -192.159927 21.635498 0.000025
v -211.005447 21.635529 87.401344
v -177.532623 21.635529 73.536446
v -161.496567 21.635559 161.496597
v -211.005447 -0.694977 -87.401283
v -228.390640 -0.694946 0.000031
v -211.005447 -0.694931 87.401352
v -161.496567 -0.694916 161.496597
v -87.401321 -0.694885 211.005463
v 0.000000 -0.694885 228.390671

# UV coordinates
vt 0.621505 0.647334
vt 0.596880 0.650465
vt 0.596880 0.000000
vt 0.621505 0.002324
vt 0.483098 0.649296
vt 0.483098 0.002717
vt 0.504588 0.000000
vt 0.504588 0.652047
vt 0.529204 0.649320
vt 0.529204 0.002741
vt 0.553838 0.000000
vt 0.553838 0.652047
vt 0.667641 0.597458
vt 0.667641 0.007963
vt 0.689152 0.000000
vt 0.689152 0.594480
vt 0.713777 0.589607
vt 0.713777 0.000112
vt 0.738402 0.000000
vt 0.738402 0.594480
vt 0.390826 0.649297
vt 0.390826 0.002718
vt 0.412358 0.000000
vt 0.412358 0.652047
vt 0.436992 0.649320
vt 0.436992 0.002741
vt 0.461608 0.000000
vt 0.461608 0.652047
vt 0.667641 0.003654
vt 0.667641 0.648665
vt 0.646131 0.650465
vt 0.646131 0.000000
vt 0.859609 0.205332
vt 0.875649 0.205332
vt 0.875649 0.418471
vt 0.859609 0.418471
vt 0.875610 0.582312
vt 0.859609 0.582312
vt 0.859609 0.418471
vt 0.875610 0.418471
vt 0.743874 0.597458
vt 0.759913 0.597458
vt 0.759913 0.810597
vt 0.743874 0.810597
vt 0.574162 0.815887
vt 0.559538 0.815887
vt 0.559538 0.652047
vt 0.574162 0.652047
vt 0.739210 0.837667
vt 0.575370 0.837667
vt 0.575370 0.650465
vt 0.739210 0.650465
vt 0.370168 0.606470
vt 0.206327 0.606470
vt 0.206327 0.394037
vt 0.370167 0.394037
vt 0.865096 0.631286
vt 0.875979 0.631287
vt 0.875979 0.844426
vt 0.865096 0.844426
vt 0.143842 0.982744
vt 0.132986 0.982744
vt 0.132986 0.818904
vt 0.143842 0.818904
vt 0.981413 0.637832
vt 0.992296 0.637832
vt 0.992296 0.850971
vt 0.981413 0.850971
vt 0.163840 0.982744
vt 0.153918 0.982744
vt 0.153918 0.818904
vt 0.163840 0.818904
vt 0.327680 0.793673
vt 0.163840 0.793673
vt 0.163840 0.606470
vt 0.327680 0.606471
vt 0.000000 0.818904
vt 0.000000 0.606471
vt 0.163840 0.606471
vt 0.371519 0.606471
vt 0.371519 0.792441
vt 0.356906 0.798103
vt 0.356906 0.609364
vt 0.835881 0.886717
vt 0.839553 0.670671
vt 0.855115 0.653483
vt 0.850482 0.887102
vt 0.865096 0.644557
vt 0.865096 0.887507
vt 0.327680 0.856257
vt 0.327680 0.614734
vt 0.342293 0.606471
vt 0.342293 0.855765
vt 0.356906 0.614734
vt 0.356906 0.856257
vt 0.496010 0.652047
vt 0.496010 0.894997
vt 0.486029 0.886071
vt 0.481395 0.652451
vt 0.470467 0.868883
vt 0.466795 0.652836
vt 0.386132 0.609364
vt 0.386132 0.798103
vt 0.103292 0.892472
vt 0.088679 0.895030
vt 0.088679 0.818904
vt 0.103292 0.821391
vt 0.117905 0.895030
vt 0.117905 0.818904
vt 0.760299 0.645884
vt 0.760700 0.631287
vt 0.391613 0.908267
vt 0.391213 0.893669
vt 0.291955 0.793673
vt 0.306568 0.801064
vt 0.306568 0.906254
vt 0.291955 0.906676
vt 0.390826 0.879052
vt 0.759913 0.660502
vt 0.277342 0.801064
vt 0.277342 0.906254
vt 0.200292 0.316724
vt 0.195413 0.000000
vt 0.390826 0.063068
vt 0.390826 0.394037
vt 0.859609 0.316682
vt 0.859609 0.631287
vt 0.759913 0.631287
vt 0.759913 0.316682
vt 0.195413 0.330969
vt 0.000000 0.394037
vt 0.004879 0.077313
vt 0.759913 0.000000
vt 0.781824 0.175953
vt 0.781824 0.301206
vt 0.959306 0.205332
vt 0.859609 0.000000
vt 0.959306 0.000000
vt 0.590060 0.837667
vt 0.590060 0.893541
vt 0.575370 0.892075
vt 0.575370 0.839133
vt 0.837698 0.175953
vt 0.837698 0.301206
vt 0.216783 0.912355
vt 0.163840 0.912355
vt 0.168142 0.908095
vt 0.212481 0.908095
vt 0.117905 0.944187
vt 0.117905 0.818904
vt 0.132986 0.822193
vt 0.132986 0.940903
vt 0.603339 0.837667
vt 0.603339 0.893541
vt 0.590060 0.892075
vt 0.590060 0.839133
vt 0.559538 0.941170
vt 0.559538 0.815887
vt 0.574619 0.819171
vt 0.574619 0.937881
vt 0.044340 0.818904
vt 0.088679 0.818904
vt 0.085762 0.876679
vt 0.047257 0.876679
vt 0.216783 0.793673
vt 0.212481 0.797933
vt 0.163840 0.793673
vt 0.168142 0.797933
vt 0.559538 0.762315
vt 0.559538 0.872583
vt 0.496010 0.862550
vt 0.496010 0.766790
vt 0.000000 0.818904
vt 0.044340 0.818904
vt 0.041423 0.881451
vt 0.002917 0.881451
vt 0.559538 0.762315
vt 0.496010 0.757839
vt 0.496010 0.662080
vt 0.238837 0.793673
vt 0.277342 0.793673
vt 0.277342 0.889340
vt 0.238837 0.889340
vt 0.972683 0.637649
vt 0.972683 0.000183
vt 0.986061 0.000366
vt 0.986061 0.637832
vt 0.919172 0.205332
vt 0.919172 0.836960
vt 0.905794 0.836960
vt 0.905794 0.205332
vt 0.945928 0.205515
vt 0.945928 0.842981
vt 0.932551 0.843164
vt 0.932551 0.205698
vt 0.892415 0.205332
vt 0.892415 0.747954
vt 0.879036 0.747954
vt 0.879036 0.205332
vt 0.667641 0.610836
vt 0.672911 0.602831
vt 0.669660 0.610836
vt 0.372916 0.798506
vt 0.380921 0.798103
vt 0.380921 0.948209
vt 0.372916 0.948612
vt 0.693882 0.610836
vt 0.693882 0.624215
vt 0.688612 0.618841
vt 0.691863 0.610836
vt 0.680762 0.597458
vt 0.693882 0.597458
vt 0.688612 0.602831
vt 0.680761 0.599516
vt 0.680762 0.624215
vt 0.667641 0.624215
vt 0.672911 0.618841
vt 0.680761 0.622157
vt 0.388926 0.798506
vt 0.388926 0.948612
vt 0.905794 0.205332
vt 0.905794 0.747954
vt 0.932551 0.205332
vt 0.932551 0.836960
vt 0.759913 0.942097
vt 0.751908 0.940396
vt 0.751908 0.810597
vt 0.759913 0.812299
vt 0.319682 0.944900
vt 0.311671 0.944898
vt 0.311671 0.793673
vt 0.319682 0.793675
vt 0.959306 0.205332
vt 0.959306 0.842798
vt 0.959306 0.637466
vt 0.677927 0.634703
vt 0.682187 0.645192
vt 0.673667 0.645074
vt 0.667641 0.638881
vt 0.673667 0.624215
vt 0.667641 0.630241
vt 0.682188 0.624332
vt 0.688213 0.630525
vt 0.688213 0.639165
vt 0.364917 0.798103
vt 0.372916 0.798105
vt 0.372916 0.949331
vt 0.364917 0.949329
vt 0.743903 0.942097
vt 0.743903 0.812299
vt 0.327680 0.944898
vt 0.327680 0.793673
vt 0.356906 0.798105
vt 0.356906 0.949331
vt 0.959306 0.637832
vt 0.981413 0.637832
vt 0.981413 0.850971
vt 0.959306 0.850971
vt 0.238837 1.000000
vt 0.216783 1.000000
vt 0.879036 0.747954
vt 0.901144 0.747954
vt 0.901144 0.961094
vt 0.879036 0.961094
vt 0.390323 0.600364
vt 0.370167 0.600364
vt 0.370167 0.394037
vt 0.390323 0.394037
vt 0.000000 0.606471
vt 0.759913 0.007963
vt 0.759913 0.597458
vt 0.575370 0.002718
vt 0.575370 0.649297
vt 0.575370 0.648665
vt 0.575370 0.003654
vt 0.402587 0.498987
vt 0.387587 0.477367
vt 0.299833 0.513324
vt 0.305180 0.538919
vt 0.907036 0.597315
vt 0.929196 0.583480
vt 0.868950 0.518163
vt 0.854256 0.539620
vt 0.517897 0.325368
vt 0.491719 0.320667
vt 0.455072 0.409659
vt 0.477382 0.423921
vt 0.205707 0.511953
vt 0.200545 0.537454
vt 0.932933 0.672584
vt 0.958954 0.667887
vt 0.120290 0.473525
vt 0.105424 0.494810
vt 0.932244 0.753755
vt 0.958345 0.758336
vt 0.057451 0.404182
vt 0.035286 0.417755
vt 0.902547 0.828648
vt 0.925028 0.842166
vt 0.027465 0.314095
vt 0.001687 0.318853
vt 0.849256 0.886355
vt 0.864710 0.907240
vt 0.025880 0.217585
vt 0.000000 0.213565
vt 0.777687 0.917388
vt 0.783453 0.942737
vt 0.059336 0.128937
vt 0.037074 0.115603
vt 0.699423 0.917086
vt 0.694558 0.942737
vt 0.162470 0.944544
vt 0.243154 0.944544
vt 0.317696 0.913668
vt 0.374748 0.856616
vt 0.405625 0.782073
vt 0.405625 0.701390
vt 0.374748 0.626848
vt 0.317696 0.569796
vt 0.243154 0.538919
vt 0.162470 0.538919
vt 0.087928 0.569796
vt 0.030876 0.626848
vt 0.000000 0.701390
vt 0.000000 0.782073
vt 0.030876 0.856616
vt 0.087928 0.913668
vt 0.711000 0.482103
vt 0.718607 0.443864
vt 0.644065 0.412988
vt 0.622404 0.445405
vt 0.711000 0.000000
vt 0.718607 0.038239
vt 0.799290 0.038239
vt 0.806897 0.000000
vt 0.895493 0.445405
vt 0.873832 0.412988
vt 0.799290 0.443864
vt 0.806897 0.482103
vt 0.622404 0.036698
vt 0.644065 0.069115
vt 0.963302 0.377596
vt 0.930884 0.355935
vt 0.554595 0.104507
vt 0.587013 0.126168
vt 1.000000 0.289000
vt 0.961761 0.281393
vt 0.517897 0.193103
vt 0.556136 0.200710
vt 1.000000 0.193103
vt 0.961761 0.200710
vt 0.517897 0.289000
vt 0.556136 0.281393
vt 0.963302 0.104507
vt 0.930884 0.126168
vt 0.554595 0.377596
vt 0.587012 0.355936
vt 0.895493 0.036698
vt 0.873832 0.069116
vt 0.517897 0.218492
vt 0.491854 0.224053
vt 0.787590 0.482620
vt 0.782694 0.508233
vt 0.630590 0.538499
vt 0.615302 0.516926
vt 0.551913 0.581630
vt 0.574462 0.595755
vt 0.477497 0.119641
vt 0.455533 0.134547
vt 0.698255 0.482103
vt 0.703881 0.507746
vt 0.517897 0.666072
vt 0.544205 0.670665
vt 0.403300 0.043746
vt 0.388573 0.065548
vt 0.517940 0.757199
vt 0.544103 0.751917
vt 0.307434 0.001247
vt 0.302265 0.026744
vt 0.550493 0.841921
vt 0.572678 0.827423
vt 0.203513 0.000000
vt 0.208900 0.025270
vt 0.612512 0.907236
vt 0.627220 0.885447
vt 0.108192 0.040303
vt 0.123276 0.061227

# vertex normals
vn 0.000000 -0.000000 -1.000000
vn 0.382683 -0.000000 -0.923880
vn 0.382683 -0.000000 -0.923880
vn 0.707107 -0.000000 -0.707107
vn 0.923880 -0.000000 -0.382683
vn 1.000000 0.000000 0.000000
vn 0.923880 0.000000 0.382683
vn 0.707107 0.000000 0.707107
vn 0.707107 0.000000 0.707107
vn 0.382683 0.000000 0.923880
vn 0.382683 0.000000 0.923880
vn 0.000000 0.000000 1.000000
vn -0.382683 0.000000 0.923880
vn -0.382683 0.000000 0.923880
vn -0.707107 0.000000 0.707107
vn -0.923880 0.000000 0.382683
vn -1.000000 0.000000 0.000000
vn -0.923880 -0.000000 -0.382683
vn -0.707107 -0.000000 -0.707107
vn -0.382683 -0.000000 -0.923880
vn -0.382683 -0.000000 -0.923880
vn -0.577350 -0.577350 0.577350
vn -0.577350 0.577350 0.577350
vn -0.577350 0.577350 -0.577350
vn -0.577350 -0.577350 -0.577350
vn 0.577350 0.577350 -0.577350
vn 0.577350 -0.577350 -0.577350
vn 0.577350 0.577350 0.577350
vn 0.577350 -0.577350 0.577350
vn -0.000000 -0.999978 0.006685
vn -0.000000 -0.731181 0.682184
vn 0.860611 -0.386431 0.331693
vn 0.695863 -0.718156 0.005185
vn 0.983620 0.133870 -0.120707
vn 0.999245 0.038767 -0.002464
vn 0.721255 0.506630 -0.472352
vn 0.701651 0.712364 -0.014954
vn -0.000000 0.727961 -0.685618
vn -0.000000 0.999741 -0.022766
vn -0.721255 0.506630 -0.472352
vn -0.701651 0.712364 -0.014954
vn -0.983620 0.133870 -0.120707
vn -0.999245 0.038767 -0.002464
vn -0.860611 -0.386431 0.331693
vn -0.695863 -0.718156 0.005185
vn -0.717752 -0.059290 0.693770
vn -0.000000 -0.089379 0.995998
vn 0.717752 -0.059290 0.693770
vn 0.997674 0.005786 -0.067916
vn 0.695938 0.061014 -0.715505
vn -0.695937 0.061014 -0.715506
vn -0.997674 0.005786 -0.067916
vn -0.000000 0.088448 -0.996081
vn -0.782210 -0.243302 0.573543
vn -0.562250 0.432390 0.704921
vn -0.595568 0.682295 -0.423996
vn -0.602349 0.300131 -0.739660
vn 0.595568 0.682295 -0.423996
vn 0.602349 0.300131 -0.739660
vn 0.562250 0.432390 0.704921
vn 0.782210 -0.243302 0.573543
vn -0.246685 -0.604720 0.757272
vn -0.245754 -0.119788 0.961902
vn 0.246684 -0.604720 0.757272
vn 0.536209 -0.759521 0.368249
vn -0.536209 -0.759522 0.368249
vn 0.245754 -0.119788 0.961902
vn 0.573377 0.154925 0.804510
vn -0.573377 0.154925 0.804510
vn 0.274953 -0.704294 0.654500
vn -0.274953 -0.704294 0.654500
vn 0.275637 -0.209611 0.938130
vn -0.275637 -0.209611 0.938130
vn -0.570621 0.257233 0.779886
vn 0.570621 0.257233 0.779886
vn 0.566149 -0.742462 0.358087
vn -0.566149 -0.742462 0.358087
vn -0.707105 -0.411000 0.575396
vn -1.000000 0.000000 0.000000
vn -0.710164 -0.567250 -0.417007
vn -0.576635 -0.806785 0.128801
vn -0.000000 -0.987495 0.157649
vn 0.000000 -0.805711 -0.592309
vn 0.710164 -0.567250 -0.417007
vn 0.576635 -0.806785 0.128801
vn 0.707105 -0.411000 0.575396
vn 1.000000 0.000000 0.000000
vn 0.704010 0.572208 0.420652
vn 0.578072 0.128640 0.805782
vn -0.000000 0.157649 0.987495
vn 0.000000 0.805711 0.592309
vn -0.704010 0.572208 0.420652
vn -0.578072 0.128640 0.805782
vn -0.420286 -0.125426 0.898681
vn 0.000000 0.016235 0.999868
vn -0.420287 -0.809428 0.410103
vn 0.000000 -0.951090 0.308915
vn -0.000000 -0.998101 0.061604
vn -0.548988 -0.813058 0.193776
vn 0.420287 -0.809429 0.410103
vn -0.594376 -0.467427 0.654393
vn 0.420286 -0.125426 0.898681
vn 0.594376 -0.467427 0.654393
vn 0.548988 -0.813058 0.193776
vn 0.000000 0.265432 0.964130
vn 0.548989 0.080392 0.831955
vn 0.776384 -0.366331 0.512864
vn 0.000000 -0.581238 0.813734
vn -0.776384 -0.366331 0.512864
vn -0.548989 0.080392 0.831955
vn -0.707107 0.000000 0.707107
vn -0.577350 0.577350 0.577350
vn -0.577350 0.577350 -0.577350
vn -0.707107 -0.000000 -0.707107
vn 0.577350 0.577350 -0.577350
vn 0.707107 -0.000000 -0.707107
vn 0.577350 0.577350 0.577350
vn 0.707107 0.000000 0.707107
vn 0.000000 -0.000000 -1.000000
vn 0.382683 -0.000000 -0.923880
vn -0.923880 0.000000 0.382683
vn -0.707107 -0.000000 -0.707107
vn -0.382683 -0.000000 -0.923880
vn 0.707107 -0.000000 -0.707107
vn -0.923880 -0.000000 -0.382683
vn 0.923879 -0.000000 -0.382683
vn -0.707107 -0.000000 -0.707107
vn -0.382683 -0.000000 -0.923880
vn 0.923879 0.000000 0.382683
vn 0.707107 0.000000 0.707107
vn 0.382683 -0.000000 -0.923880
vn 0.382683 0.000000 0.923880
vn 0.707107 -0.000000 -0.707107
vn -0.000000 1.000000 -0.000000
vn -0.000000 1.000000 -0.000000
vn -0.000000 1.000000 -0.000000
vn -0.000000 1.000000 -0.000000
vn -0.000000 1.000000 -0.000000
vn 0.000000 1.000000 -0.000000
vn 0.000000 1.000000 -0.000000
vn 0.000000 1.000000 -0.000000
vn -0.000000 1.000000 -0.000000
vn -0.000000 1.000000 -0.000000
vn 0.000000 1.000000 -0.000000
vn -0.000000 1.000000 -0.000000
vn -0.000000 1.000000 -0.000000
vn 0.000000 1.000000 -0.000000
vn 0.000000 1.000000 -0.000000
vn -0.000000 1.000000 -0.000000
vn 0.000000 1.000000 -0.000000
vn -0.000000 1.000000 -0.000000
vn -0.000000 1.000000 -0.000000
vn 0.000000 1.000000 -0.000000
vn 0.000000 1.000000 -0.000000
vn 0.000000 1.000000 -0.000000
vn 0.000000 1.000000 -0.000000
vn -0.923879 -0.000000 -0.382683
vn -0.707107 0.000000 0.707107
vn 0.000000 0.000000 1.000000
vn 0.382683 0.000000 0.923880
vn -0.382683 0.000000 0.923880
vn 0.707107 0.000000 0.707107
vn -0.923879 0.000000 0.382683
vn 0.923880 0.000000 0.382683
vn -0.707107 0.000000 0.707107
vn -0.382683 0.000000 0.923880
vn 0.923880 -0.000000 -0.382683

# Mesh
g Cylinder
usemtl Material.002
f 4/4/1 1/1/1 2/2/2
f 2/2/2 3/3/3 4/4/1
f 8/8/5 5/5/4 6/6/4
f 6/6/4 7/7/5 8/8/5
f 12/12/7 9/9/6 10/10/6
f 10/10/6 11/11/7 12/12/7
f 16/16/11 13/13/8 14/14/9
f 14/14/9 15/15/10 16/16/11
f 20/20/14 17/17/12 18/18/12
f 18/18/12 19/19/13 20/20/14
f 24/24/16 21/21/15 22/22/15
f 22/22/15 23/23/16 24/24/16
f 28/28/18 25/25/17 26/26/17
f 26/26/17 27/27/18 28/28/18
f 32/32/21 29/29/19 30/30/19
f 30/30/19 31/31/20 32/32/21
f 36/36/25 33/33/22 34/34/23
f 34/34/23 35/35/24 36/36/25
f 38/40/27 36/37/25 35/38/24
f 35/38/24 37/39/26 38/40/27
f 40/44/29 38/41/27 37/42/26
f 37/42/26 39/43/28 40/44/29
f 33/48/22 40/45/29 39/46/28
f 39/46/28 34/47/23 33/48/22
f 33/52/22 36/49/25 38/50/27
f 38/50/27 40/51/29 33/52/22
f 39/56/28 37/53/26 35/54/24
f 35/54/24 34/55/23 39/56/28
f 44/60/25 41/57/22 42/58/23
f 42/58/23 43/59/24 44/60/25
f 46/64/27 44/61/25 43/62/24
f 43/62/24 45/63/26 46/64/27
f 48/68/29 46/65/27 45/66/26
f 45/66/26 47/67/28 48/68/29
f 41/72/22 48/69/29 47/70/28
f 47/70/28 42/71/23 41/72/22
f 41/76/22 44/73/25 46/74/27
f 46/74/27 48/75/29 41/76/22
f 47/79/28 45/72/26 43/77/24
f 43/77/24 42/78/23 47/79/28
f 52/83/33 49/80/30 50/81/31
f 50/81/31 51/82/32 52/83/33
f 54/87/35 52/84/33 51/85/32
f 51/85/32 53/86/34 54/87/35
f 56/89/37 54/87/35 53/86/34
f 53/86/34 55/88/36 56/89/37
f 58/93/39 56/90/37 55/91/36
f 55/91/36 57/92/38 58/93/39
f 60/95/41 58/93/39 57/92/38
f 57/92/38 59/94/40 60/95/41
f 62/99/43 60/96/41 59/97/40
f 59/97/40 61/98/42 62/99/43
f 64/101/45 62/99/43 61/98/42
f 61/98/42 63/100/44 64/101/45
f 49/80/30 64/102/45 63/103/44
f 63/103/44 50/81/31 49/80/30
f 66/107/47 50/104/31 63/105/44
f 63/105/44 65/106/46 66/107/47
f 67/109/48 51/108/32 50/104/31
f 50/104/31 66/107/47 67/109/48
f 69/111/50 55/88/36 53/86/34
f 53/86/34 68/110/49 69/111/50
f 71/113/52 61/98/42 59/97/40
f 59/97/40 70/112/51 71/113/52
f 72/117/53 57/114/38 55/115/36
f 55/115/36 69/116/50 72/117/53
f 65/118/46 63/100/44 61/98/42
f 61/98/42 71/113/52 65/118/46
f 68/110/49 53/86/34 51/85/32
f 51/85/32 67/119/48 68/110/49
f 70/121/51 59/120/40 57/114/38
f 57/114/38 72/117/53 70/121/51
f 76/125/57 73/122/54 74/123/55
f 74/123/55 75/124/56 76/125/57
f 78/129/59 76/126/57 75/127/56
f 75/127/56 77/128/58 78/129/59
f 80/132/61 78/123/59 77/130/58
f 77/130/58 79/131/60 80/132/61
f 82/135/63 74/129/55 73/133/54
f 73/133/54 81/134/62 82/135/63
f 79/138/60 77/136/58 75/33/56
f 75/33/56 74/137/55 79/138/60
f 85/142/66 81/139/62 83/140/64
f 83/140/64 84/141/65 85/142/66
f 81/134/62 73/133/54 80/137/61
f 80/137/61 83/143/64 81/134/62
f 86/144/67 79/126/60 74/129/55
f 74/129/55 82/135/63 86/144/67
f 83/143/64 80/137/61 79/126/60
f 79/126/60 86/144/67 83/143/64
f 90/148/71 87/145/68 88/146/69
f 88/146/69 89/147/70 90/148/71
f 88/152/69 82/149/63 81/150/62
f 81/150/62 85/151/66 88/152/69
f 87/156/68 86/153/67 82/154/63
f 82/154/63 88/155/69 87/156/68
f 84/160/65 83/157/64 86/158/67
f 86/158/67 87/159/68 84/160/65
f 94/164/75 91/161/72 92/162/73
f 92/162/73 93/163/74 94/164/75
f 92/166/73 84/165/65 87/145/68
f 87/145/68 90/148/71 92/166/73
f 91/168/72 85/167/66 84/165/65
f 84/165/65 92/166/73 91/168/72
f 89/147/70 88/146/69 85/167/66
f 85/167/66 91/168/72 89/147/70
f 95/172/76 89/169/70 91/170/72
f 91/170/72 94/171/75 95/172/76
f 96/176/77 90/173/71 89/174/70
f 89/174/70 95/175/76 96/176/77
f 93/179/74 92/47/73 90/177/71
f 90/177/71 96/178/77 93/179/74
f 95/183/76 94/180/75 93/181/74
f 93/181/74 96/182/77 95/183/76
f 100/187/81 97/184/78 98/185/79
f 98/185/79 99/186/80 100/187/81
f 104/191/85 101/188/82 102/189/83
f 102/189/83 103/190/84 104/191/85
f 108/195/89 105/192/86 106/193/87
f 106/193/87 107/194/88 108/195/89
f 112/199/93 109/196/90 110/197/91
f 110/197/91 111/198/92 112/199/93
f 114/202/95 109/200/90 112/13/93
f 112/13/93 113/201/94 114/202/95
f 118/206/99 115/203/96 116/204/97
f 116/204/97 117/205/98 118/206/99
f 116/210/97 101/207/82 104/208/85
f 104/208/85 119/209/100 116/210/97
f 120/214/101 97/211/78 100/212/81
f 100/212/81 115/213/96 120/214/101
f 122/218/103 105/215/86 108/216/89
f 108/216/89 121/217/102 122/218/103
f 115/213/96 100/212/81 101/207/82
f 101/207/82 116/210/97 115/213/96
f 117/205/98 116/204/97 119/219/100
f 119/219/100 123/220/104 117/205/98
f 121/217/102 108/216/89 109/200/90
f 109/200/90 114/202/95 121/217/102
f 109/196/90 108/221/89 107/222/88
f 107/222/88 110/197/91 109/196/90
f 101/188/82 100/223/81 99/224/80
f 99/224/80 102/189/83 101/188/82
f 125/228/106 121/225/102 114/226/95
f 114/226/95 124/227/105 125/228/106
f 119/209/100 104/208/85 105/215/86
f 105/215/86 122/218/103 119/209/100
f 113/201/94 112/13/93 97/211/78
f 97/211/78 120/214/101 113/201/94
f 126/232/107 122/229/103 121/230/102
f 121/230/102 125/231/106 126/232/107
f 105/192/86 104/233/85 103/234/84
f 103/234/84 106/193/87 105/192/86
f 97/184/78 112/235/93 111/138/92
f 111/138/92 98/185/79 97/184/78
f 124/239/105 127/236/108 126/237/107
f 126/237/107 125/238/106 124/239/105
f 129/241/110 128/240/109 127/236/108
f 127/236/108 124/239/105 129/241/110
f 128/240/109 118/242/99 117/243/98
f 117/243/98 127/236/108 128/240/109
f 127/236/108 117/243/98 123/244/104
f 123/244/104 126/237/107 127/236/108
f 128/248/109 120/245/101 115/246/96
f 115/246/96 118/247/99 128/248/109
f 124/227/105 114/226/95 113/249/94
f 113/249/94 129/250/110 124/227/105
f 123/252/104 119/251/100 122/229/103
f 122/229/103 126/232/107 123/252/104
f 129/254/110 113/253/94 120/245/101
f 120/245/101 128/248/109 129/254/110
f 133/258/114 130/255/111 131/256/112
f 131/256/112 132/257/113 133/258/114
f 135/180/116 133/259/114 132/260/113
f 132/260/113 134/165/115 135/180/116
f 137/264/118 135/261/116 134/262/115
f 134/262/115 136/263/117 137/264/118
f 130/268/111 137/265/118 136/266/117
f 136/266/117 131/267/112 130/268/111
f 136/55/117 134/54/115 132/269/113
f 132/269/113 131/131/112 136/55/117
f 29/5/19 28/28/18 27/27/18
f 27/27/18 30/6/19 29/5/19
f 25/25/17 24/24/16 23/23/16
f 23/23/16 26/26/17 25/25/17
f 21/271/15 20/20/14 19/19/13
f 19/19/13 22/270/15 21/271/15
f 17/17/12 16/16/11 15/15/10
f 15/15/10 18/18/12 17/17/12
f 13/273/8 12/12/7 11/11/7
f 11/11/7 14/272/9 13/273/8
f 9/9/6 8/8/5 7/7/5
f 7/7/5 10/10/6 9/9/6
f 5/275/4 3/3/3 2/2/2
f 2/2/2 6/274/4 5/275/4
f 4/4/1 32/32/21 31/31/20
f 31/31/20 1/1/1 4/4/1

# Mesh
g Cylinder.001
usemtl Material.001
f 141/279/120 138/276/119 139/277/119
f 139/277/119 140/278/120 141/279/120
f 145/283/121 142/280/17 143/281/17
f 143/281/17 144/282/121 145/283/121
f 149/287/123 146/284/122 147/285/122
f 147/285/122 148/286/123 149/287/123
f 151/289/124 141/279/120 140/278/120
f 140/278/120 150/288/124 151/289/124
f 142/280/17 152/290/125 153/291/125
f 153/291/125 143/281/17 142/280/17
f 138/276/119 149/287/123 148/286/123
f 148/286/123 139/277/119 138/276/119
f 155/293/126 151/289/124 150/288/124
f 150/288/124 154/292/126 155/293/126
f 152/290/125 156/294/127 157/295/127
f 157/295/127 153/291/125 152/290/125
f 159/297/6 155/293/126 154/292/126
f 154/292/126 158/296/6 159/297/6
f 156/294/127 160/298/128 161/299/128
f 161/299/128 157/295/127 156/294/127
f 163/301/129 159/297/6 158/296/6
f 158/296/6 162/300/129 163/301/129
f 160/298/128 164/302/119 165/303/119
f 165/303/119 161/299/128 160/298/128
f 167/305/130 163/301/129 162/300/129
f 162/300/129 166/304/130 167/305/130
f 164/302/119 168/306/131 169/307/131
f 169/307/131 165/303/119 164/302/119
f 171/309/132 167/305/130 166/304/130
f 166/304/130 170/308/132 171/309/132
f 168/306/131 172/310/133 173/311/133
f 173/311/133 169/307/131 168/306/131
f 181/327/134 174/312/134 175/313/134
f 181/327/134 175/313/134 176/314/134
f 181/327/134 176/314/134 177/315/134
f 181/327/134 177/315/134 178/316/134
f 181/327/134 178/316/134 172/317/134
f 181/327/134 172/317/134 168/318/134
f 181/327/134 168/318/134 164/319/134
f 181/327/134 164/319/134 160/320/134
f 181/327/134 160/320/134 156/321/134
f 181/327/134 156/321/134 152/322/134
f 181/327/134 152/322/134 142/323/134
f 181/327/134 142/323/134 145/324/134
f 181/327/134 145/324/134 179/325/134
f 179/325/134 180/326/134 181/327/134
f 150/331/138 140/328/135 182/329/136
f 182/329/136 183/330/137 150/331/138
f 185/335/141 184/332/139 165/333/139
f 165/333/139 169/334/140 185/335/141
f 139/339/142 148/336/135 186/337/135
f 186/337/135 187/338/142 139/339/142
f 140/328/135 139/339/142 187/338/142
f 187/338/142 182/329/136 140/328/135
f 184/332/139 170/340/141 161/341/141
f 161/341/141 165/333/139 184/332/139
f 148/336/135 147/342/143 188/343/143
f 188/343/143 186/337/135 148/336/135
f 170/340/141 166/344/144 157/345/144
f 157/345/144 161/341/141 170/340/141
f 147/342/143 189/346/145 190/347/146
f 190/347/146 188/343/143 147/342/143
f 166/344/144 162/348/147 153/349/148
f 153/349/148 157/345/144 166/344/144
f 189/346/145 191/350/149 192/351/149
f 192/351/149 190/347/146 189/346/145
f 162/348/147 158/352/150 143/353/150
f 143/353/150 153/349/148 162/348/147
f 191/350/149 193/354/151 194/355/152
f 194/355/152 192/351/149 191/350/149
f 158/352/150 154/356/153 144/357/154
f 144/357/154 143/353/150 158/352/150
f 193/354/151 195/358/155 173/359/156
f 173/359/156 194/355/152 193/354/151
f 154/356/153 150/331/138 183/330/137
f 183/330/137 144/357/154 154/356/153
f 195/358/155 185/335/141 169/334/140
f 169/334/140 173/359/156 195/358/155
f 146/284/122 196/360/157 189/361/157
f 189/361/157 147/285/122 146/284/122
f 179/363/158 145/283/121 144/282/121
f 144/282/121 183/362/158 179/363/158
f 174/367/160 181/364/159 187/365/159
f 187/365/159 186/366/160 174/367/160
f 196/360/157 197/368/17 191/369/17
f 191/369/17 189/361/157 196/360/157
f 180/371/161 179/363/158 183/362/158
f 183/362/158 182/370/161 180/371/161
f 175/373/162 174/367/160 186/366/160
f 186/366/160 188/372/162 175/373/162
f 197/368/17 198/374/163 193/375/163
f 193/375/163 191/369/17 197/368/17
f 181/364/159 180/371/161 182/370/161
f 182/370/161 187/365/159 181/364/159
f 176/377/164 175/373/162 188/372/162
f 188/372/162 190/376/164 176/377/164
f 198/374/163 199/378/165 195/379/165
f 195/379/165 193/375/163 198/374/163
f 177/381/6 176/377/164 190/376/164
f 190/376/164 192/380/6 177/381/6
f 199/378/165 200/382/166 185/383/166
f 185/383/166 195/379/165 199/378/165
f 178/385/167 177/381/6 192/380/6
f 192/380/6 194/384/167 178/385/167
f 200/382/166 201/386/159 184/387/159
f 184/387/159 185/383/166 200/382/166
f 172/310/133 178/385/167 194/384/167
f 194/384/167 173/311/133 172/310/133
f 201/386/159 171/309/132 170/308/132
f 170/308/132 184/387/159 201/386/159
