# Blender 4.1.1
# www.blender.org
mtllib Table.mtl
o Cube
v -1.000000 2.654404 1.500000
v -1.000000 2.708654 1.500000
v -1.000000 2.654404 -1.500000
v -1.000000 2.708654 -1.500000
v 1.000000 2.654404 1.500000
v 1.000000 2.708654 1.500000
v 1.000000 2.654404 -1.500000
v 1.000000 2.708654 -1.500000
v 0.841229 2.708654 1.500000
v -0.841229 2.708654 1.500000
v -0.841229 2.654404 1.500000
v 0.841229 2.654404 1.500000
v -0.841229 2.708654 -1.500000
v 0.841229 2.708654 -1.500000
v 0.841229 2.654404 -1.500000
v -0.841229 2.654404 -1.500000
v -1.000000 2.654404 1.668632
v -1.000000 2.708654 1.668632
v 1.000000 2.654404 1.668632
v 1.000000 2.708654 1.668632
v 0.841229 2.708654 1.668632
v -0.841229 2.708654 1.668632
v -0.841229 2.654404 1.668632
v 0.841229 2.654404 1.668632
v -1.000000 2.654404 -1.664074
v -1.000000 2.708654 -1.664074
v 1.000000 2.654404 -1.664074
v 1.000000 2.708654 -1.664074
v -0.841229 2.708654 -1.664074
v 0.841229 2.708654 -1.664074
v 0.841229 2.654404 -1.664074
v -0.841229 2.654404 -1.664074
v -0.915049 1.400882 -1.564196
v -0.997510 1.400882 -1.564196
v 0.915049 1.400882 1.565319
v 0.997510 1.400882 1.565319
v -0.997510 1.400882 1.565319
v -0.915049 1.400882 1.565319
v 0.997510 1.400882 -1.564196
v 0.915049 1.400882 -1.564196
v 0.915049 1.400882 -1.647466
v -0.915049 1.400882 -1.647466
v 0.915049 1.400882 1.650902
v 0.997510 1.400882 1.650902
v -0.997510 1.400882 1.650902
v -0.915049 1.400882 1.650902
v -0.997510 1.400882 -1.647466
v 0.997510 1.400882 -1.647466
vn -1.0000 -0.0000 -0.0000
vn 1.0000 -0.0000 -0.0000
vn -0.9983 -0.0588 -0.0000
vn -0.0000 -1.0000 -0.0000
vn -0.0000 1.0000 -0.0000
vn -0.0000 -0.0000 1.0000
vn -0.0000 -0.0520 -0.9986
vn -0.0000 -0.0000 -1.0000
vn 1.0000 -0.0020 -0.0000
vn -0.0000 -0.0511 0.9987
vn -0.0000 -0.0141 0.9999
vn 0.9983 -0.0588 -0.0000
vn -0.0000 -0.0132 -0.9999
vn -1.0000 -0.0020 -0.0000
vt 0.666133 0.454434
vt 0.658729 0.454434
vt 0.658729 0.044944
vt 0.666133 0.044944
vt 0.022549 0.955056
vt 0.029952 0.955056
vt 0.029952 0.977452
vt 0.022549 0.977452
vt 0.022549 0.545566
vt 0.029952 0.545566
vt 0.829593 0.522549
vt 0.851988 0.522549
vt 0.849722 0.693799
vt 0.838355 0.693799
vt 0.613632 0.455056
vt 0.591960 0.455056
vt 0.362311 0.455056
vt 0.340639 0.455056
vt 0.340639 0.045566
vt 0.362311 0.045566
vt 0.591960 0.045566
vt 0.613632 0.045566
vt 0.295542 0.455056
vt 0.273870 0.455056
vt 0.044220 0.455056
vt 0.022549 0.455056
vt 0.022549 0.045566
vt 0.044220 0.045566
vt 0.273870 0.045566
vt 0.295542 0.045566
vt 0.666133 0.477451
vt 0.658729 0.477451
vt 0.273870 0.022549
vt 0.295542 0.022549
vt 0.273870 0.477451
vt 0.044220 0.477451
vt 0.591960 0.477451
vt 0.362311 0.477451
vt 0.253535 0.522549
vt 0.253535 0.544220
vt 0.246131 0.544220
vt 0.246131 0.522549
vt 0.246131 0.773870
vt 0.253535 0.773870
vt 0.253535 0.795542
vt 0.246131 0.795542
vt 0.362311 0.022549
vt 0.591960 0.022549
vt 0.044220 0.022549
vt 0.022549 0.022549
vt 0.022549 0.522549
vt 0.029952 0.522549
vt 0.882311 0.238896
vt 0.903983 0.238896
vt 0.893907 0.410134
vt 0.882651 0.410134
vt 0.469748 0.544220
vt 0.469748 0.522549
vt 0.477152 0.522549
vt 0.477152 0.544220
vt 0.477152 0.795542
vt 0.469748 0.795542
vt 0.469748 0.773870
vt 0.477152 0.773870
vt 0.201034 0.524969
vt 0.201034 0.536651
vt 0.760132 0.738896
vt 0.781804 0.738896
vt 0.771728 0.910131
vt 0.760472 0.910131
vt 0.022549 0.477451
vt 0.295542 0.477451
vt 0.658729 0.022549
vt 0.666133 0.022549
vt 0.257387 0.852321
vt 0.246131 0.852321
vt 0.246131 0.840639
vt 0.257387 0.840639
vt 0.313739 0.852321
vt 0.302484 0.852321
vt 0.302484 0.840639
vt 0.313739 0.840639
vt 0.358837 0.840639
vt 0.370092 0.840639
vt 0.370092 0.852005
vt 0.358837 0.852005
vt 0.415189 0.840639
vt 0.426445 0.840639
vt 0.426445 0.852005
vt 0.415189 0.852005
vt 0.693363 0.522549
vt 0.716381 0.522549
vt 0.707465 0.693799
vt 0.695783 0.693799
vt 0.201034 0.963818
vt 0.201034 0.975185
vt 0.424651 0.522889
vt 0.424651 0.534144
vt 0.882312 0.022549
vt 0.904707 0.022549
vt 0.895945 0.193799
vt 0.884578 0.193799
vt 0.761478 0.522549
vt 0.784496 0.522549
vt 0.782076 0.693799
vt 0.770394 0.693799
vt 0.648266 0.522889
vt 0.648266 0.534144
vt 0.837214 0.024816
vt 0.837214 0.036182
vt 0.693363 0.738896
vt 0.715035 0.738896
vt 0.714695 0.910134
vt 0.703439 0.910134
vt 0.424651 0.783946
vt 0.424651 0.795202
vt 0.826901 0.738896
vt 0.848573 0.738896
vt 0.848233 0.910131
vt 0.836977 0.910131
vt 0.648266 0.783946
vt 0.648266 0.795202
vt 0.837214 0.463349
vt 0.837214 0.475031
s 0
usemtl Table
f 1/1/1 2/2/1 4/3/1 3/4/1
f 8/5/2 7/6/2 27/7/2 28/8/2
f 7/6/2 8/5/2 6/9/2 5/10/2
f 15/11/3 31/12/3 41/13/3 40/14/3
f 3/15/4 16/16/4 15/17/4 7/18/4 5/19/4 12/20/4 11/21/4 1/22/4
f 8/23/5 14/24/5 13/25/5 4/26/5 2/27/5 10/28/5 9/29/5 6/30/5
f 2/2/1 1/1/1 17/31/1 18/32/1
f 6/30/5 9/29/5 21/33/5 20/34/5
f 13/25/5 14/24/5 30/35/5 29/36/5
f 15/17/4 16/16/4 32/37/4 31/38/4
f 17/39/6 23/40/6 22/41/6 18/42/6
f 21/43/6 22/41/6 23/40/6 24/44/6
f 19/45/6 20/46/6 21/43/6 24/44/6
f 11/21/4 12/20/4 24/47/4 23/48/4
f 9/29/5 10/28/5 22/49/5 21/33/5
f 10/28/5 2/27/5 18/50/5 22/49/5
f 5/10/2 6/9/2 20/51/2 19/52/2
f 1/53/7 11/54/7 38/55/7 37/56/7
f 30/57/8 28/58/8 27/59/8 31/60/8
f 25/61/8 26/62/8 29/63/8 32/64/8
f 29/63/8 30/57/8 31/60/8 32/64/8
f 5/10/9 19/52/9 44/65/9 36/66/9
f 7/67/10 15/68/10 40/69/10 39/70/10
f 4/26/5 13/25/5 29/36/5 26/71/5
f 14/24/5 8/23/5 28/72/5 30/35/5
f 3/4/1 4/3/1 26/73/1 25/74/1
f 35/75/4 36/76/4 44/77/4 43/78/4
f 37/79/4 38/80/4 46/81/4 45/82/4
f 33/83/4 34/84/4 47/85/4 42/86/4
f 39/87/4 40/88/4 41/89/4 48/90/4
f 24/91/3 12/92/3 35/93/3 43/94/3
f 27/7/9 7/6/9 39/95/9 48/96/9
f 23/40/11 17/39/11 45/97/11 46/98/11
f 32/99/12 16/100/12 33/101/12 42/102/12
f 11/103/12 23/104/12 46/105/12 38/106/12
f 31/60/13 27/59/13 48/107/13 41/108/13
f 3/4/14 25/74/14 47/109/14 34/110/14
f 12/111/7 5/112/7 36/113/7 35/114/7
f 19/45/11 24/44/11 43/115/11 44/116/11
f 16/117/10 3/118/10 34/119/10 33/120/10
f 25/61/13 32/64/13 42/121/13 47/122/13
f 17/31/14 1/1/14 37/123/14 45/124/14
