# Blender 4.1.1
# www.blender.org
mtllib Ghat.mtl
o Cube
v -1.000000 0.000000 1.000000
v -1.000000 0.041355 1.000000
v -1.000000 0.000000 -1.000000
v -1.000000 0.041355 -1.000000
v 1.000000 0.000000 1.000000
v 1.000000 0.041355 1.000000
v 1.000000 0.000000 -1.000000
v 1.000000 0.041355 -1.000000
v -1.031230 0.000000 1.000000
v -1.031230 0.041355 1.000000
v -1.031230 0.000000 -1.000000
v -1.031230 0.041355 -1.000000
v -1.998182 0.000000 1.000000
v -1.998182 0.041355 1.000000
v -1.998182 0.000000 -1.000000
v -1.998182 0.041355 -1.000000
v -2.032166 0.000000 1.000000
v -2.032166 0.041355 1.000000
v -2.032166 0.000000 -1.000000
v -2.032166 0.041355 -1.000000
v -1.000000 0.000000 -1.047032
v -1.000000 0.041355 -1.047032
v 1.000000 0.000000 -1.047032
v 1.000000 0.041355 -1.047032
v -1.031230 0.000000 -1.047032
v -1.031230 0.041355 -1.047032
v -1.998182 0.000000 -1.047032
v -1.998182 0.041355 -1.047032
v -2.032166 0.000000 -1.047032
v -2.032166 0.041355 -1.047032
v -1.000000 0.000000 1.046086
v -1.000000 0.041355 1.046086
v 1.000000 0.000000 1.046086
v 1.000000 0.041355 1.046086
v -1.031230 0.000000 1.046086
v -1.031230 0.041355 1.046086
v -1.998182 0.000000 1.046086
v -1.998182 0.041355 1.046086
v -2.032166 0.000000 1.046086
v -2.032166 0.041355 1.046086
v 1.049374 0.000000 1.000000
v 1.049374 0.041355 1.000000
v 1.049374 0.000000 -1.000000
v 1.049374 0.041355 -1.000000
v 1.049374 0.000000 -1.047032
v 1.049374 0.041355 -1.047032
v 1.049374 0.000000 1.046086
v 1.049374 0.041355 1.046086
v -1.000000 0.781879 1.000000
v 1.000000 0.781879 1.000000
v -1.031230 0.781879 1.000000
v -1.998182 0.781879 1.000000
v -2.032166 0.781879 1.000000
v -1.000000 0.781879 1.046086
v 1.000000 0.781879 1.046086
v -1.031230 0.781879 1.046086
v -1.998182 0.781879 1.046086
v -2.032166 0.781879 1.046086
v 1.049374 0.781879 1.000000
v 1.049374 0.781879 1.046086
v -1.000000 0.781879 -1.000000
v 1.000000 0.781879 -1.000000
v -1.031230 0.781879 -1.000000
v -1.998182 0.781879 -1.000000
v -2.032166 0.781879 -1.000000
v -1.000000 0.781879 -1.047032
v 1.000000 0.781879 -1.047032
v -1.031230 0.781879 -1.047032
v -1.998182 0.781879 -1.047032
v -2.032166 0.781879 -1.047032
v 1.049374 0.781879 -1.000000
v 1.049374 0.781879 -1.047032
v -1.031230 0.041355 0.639881
v -1.000000 0.041355 0.639881
v -1.031230 0.781879 0.639881
v -1.000000 0.781879 0.639881
v -1.000000 0.651257 1.000000
v -1.031230 0.651257 1.000000
v -1.031230 0.651257 0.639881
v -1.000000 0.651257 0.639881
v 1.000000 0.041355 0.256573
v 1.049374 0.041355 0.256573
v 1.000000 0.041355 0.616692
v 1.049374 0.041355 0.616692
v 1.000000 0.651257 1.000000
v 1.049374 0.651257 1.000000
v 1.000000 0.651257 0.616692
v 1.049374 0.651257 0.616692
v 1.000000 0.651257 0.256573
v 1.049374 0.651257 0.256573
v 1.049374 0.651257 -1.000000
v 1.000000 0.651257 -1.000000
vn -1.0000 -0.0000 -0.0000
vn -0.0000 -0.0000 -1.0000
vn -0.0000 -0.0000 1.0000
vn -0.0000 -1.0000 -0.0000
vn -0.0000 1.0000 -0.0000
vn 1.0000 -0.0000 -0.0000
vt 0.506988 0.844735
vt 0.506988 0.854741
vt 0.346210 0.854741
vt 0.346210 0.844735
vt 0.999610 0.326255
vt 0.999610 0.165476
vt 1.006988 0.165476
vt 1.006988 0.326255
vt 0.829852 -0.258033
vt 0.820874 -0.258033
vt 0.820874 -0.268753
vt 0.829852 -0.268753
vt 0.685724 0.855963
vt 0.685724 0.845243
vt 0.714084 0.845243
vt 0.714084 0.855963
vt 0.195437 -0.044654
vt 0.195437 0.389575
vt -0.238792 0.389575
vt -0.238792 -0.044654
vt 0.185431 0.411014
vt 0.185431 0.845243
vt -0.170610 0.845243
vt -0.248798 0.845243
vt -0.248798 0.411014
vt -0.165576 0.411014
vt -0.087389 0.411014
vt 0.195437 -0.051435
vt -0.238792 -0.051435
vt -0.238792 -0.261374
vt 0.195437 -0.261374
vt 1.167767 0.087289
vt 1.167767 -0.268753
vt 1.174547 -0.268753
vt 1.174547 0.087289
vt 0.205649 -0.051435
vt 0.205649 -0.044654
vt 1.007281 0.841304
vt 1.007281 1.051243
vt 0.846503 1.051243
vt 0.846503 0.841304
vt 0.195437 -0.268753
vt 0.205649 -0.268753
vt 0.205649 -0.261374
vt -0.248798 0.852024
vt -0.170610 0.852024
vt 0.185431 0.852024
vt 0.185431 1.061963
vt -0.248798 1.061963
vt 0.515967 0.844735
vt 0.506988 0.410506
vt 0.515967 0.410506
vt 0.515967 0.854741
vt 1.160388 -0.268753
vt 1.167767 0.165476
vt 1.160388 0.165476
vt -0.238792 -0.268753
vt 0.829852 0.176196
vt 0.820874 0.176196
vt 0.829852 0.182977
vt 0.820874 0.182977
vt 0.820874 0.392916
vt 0.829852 0.392916
vt 0.829852 0.400295
vt 0.820874 0.400295
vt 0.676746 0.844529
vt 0.676746 0.854741
vt 0.515967 0.854741
vt 0.515967 0.844529
vt 0.544327 0.844529
vt 0.346210 0.841304
vt 0.213791 0.841304
vt 0.213791 0.834524
vt 0.346210 0.834524
vt 0.506988 0.400294
vt 0.515967 0.400294
vt 0.205649 0.389575
vt 0.660095 -0.258033
vt 0.660095 -0.268753
vt 0.999610 -0.044654
vt 0.990631 -0.044654
vt 0.990631 -0.051435
vt 0.999610 -0.051435
vt 0.999610 0.389575
vt 0.990631 0.389575
vt 0.990631 -0.261374
vt 0.999610 -0.261374
vt 0.990631 -0.268753
vt 0.999610 -0.268753
vt -0.248798 0.389575
vt -0.248798 -0.044654
vt -0.248798 -0.051435
vt 0.829852 -0.261374
vt 0.829852 -0.268753
vt -0.248798 -0.261374
vt 0.990631 0.400295
vt 0.829852 0.400295
vt 0.829852 0.389575
vt -0.248798 -0.268753
vt 0.685724 0.844529
vt 0.676746 0.571709
vt 0.676746 0.493522
vt 0.676746 0.410300
vt 0.685724 0.410300
vt 0.676746 0.400294
vt 0.685724 0.400294
vt 0.685724 0.854741
vt 0.999610 0.400295
vt 0.205649 0.400295
vt 0.195437 0.400295
vt -0.238792 0.400295
vt -0.248798 0.400295
vt 1.160388 -0.268753
vt 1.160388 0.165476
vt 1.027970 0.165476
vt 0.999610 0.165476
vt 0.999610 -0.268753
vt 0.215655 0.182977
vt 0.215655 0.392916
vt 0.205649 0.392916
vt 0.205649 0.182977
vt 0.215655 0.176196
vt 0.205649 0.176196
vt 0.215655 -0.258033
vt 0.205649 -0.258033
vt 0.205649 -0.268753
vt 0.215655 -0.268753
vt 0.215655 0.400295
vt 0.205649 0.400295
vt 0.346210 1.051243
vt 0.185431 1.051243
vt 0.185431 0.841304
vt 0.829852 -0.044654
vt 0.829852 -0.051435
vt 1.006988 0.326255
vt 1.006988 0.165476
vt 1.014367 0.165476
vt 1.014367 0.326255
vt 0.346210 0.400295
vt 0.185431 0.834524
vt 0.185431 0.400295
vt 0.213791 0.400295
vt 0.544327 0.410300
vt 0.515967 0.410300
vt 0.515967 0.400294
vt 0.649884 0.392916
vt 0.649884 0.182977
vt 0.660095 0.182977
vt 0.660095 0.392916
vt 0.649884 0.176196
vt 0.649884 -0.258033
vt 0.660095 -0.258033
vt 0.660095 0.176196
vt 0.649884 0.400295
vt 0.660095 0.400295
vt 0.649884 -0.268753
vt 0.660095 -0.268753
vt 0.346210 0.410506
vt 0.346210 0.400294
vt 0.660095 0.182977
vt 0.660095 0.176196
vt 0.714084 0.411014
vt 0.685724 0.411014
vt 0.685724 0.400294
vt 0.714084 0.400294
vt 0.846503 0.400295
vt 1.007281 0.400295
vt 1.007281 0.407075
vt 0.846503 0.407075
vt 1.168060 0.400295
vt 1.168060 0.834524
vt 1.007281 0.834524
vt 1.007282 0.400295
vt 0.374430 0.987160
vt 0.367650 0.987160
vt 0.367650 0.854741
vt 0.374430 0.854741
vt 0.293842 0.176196
vt 0.293842 0.182977
vt 0.846503 0.763117
vt 1.007281 0.763117
vt 0.978922 0.763117
vt 1.007281 1.190566
vt 1.168060 1.190566
vt 1.035641 1.190566
vt 0.391931 0.932928
vt 0.385150 0.932928
vt 0.385150 0.854741
vt 0.391931 0.854741
vt 1.035641 1.268753
vt 1.007281 1.268753
vt 0.978922 0.841304
vt 0.846503 0.400294
vt 0.846503 0.411014
vt 0.846503 0.855963
vt 0.846503 0.845243
vt 0.367650 0.987159
vt 0.356930 0.987159
vt 0.356930 0.854741
vt 0.544327 0.493522
vt 0.846503 0.762022
vt 0.714084 0.762022
vt 0.346210 0.987159
vt 0.346210 0.854741
vt 0.356930 0.854741
vt 0.356930 0.987159
vt 0.385150 0.854741
vt 0.385150 0.932928
vt 0.374430 0.932928
vt 0.544327 0.571709
vt 0.846503 0.683835
vt 0.714084 0.683835
vt -0.165576 0.400295
vt -0.087389 0.400295
s 0
usemtl Ghar
f 18/1/1 40/2/1 58/3/1 53/4/1
f 20/5/2 65/6/2 64/7/2 16/8/2
f 23/9/2 24/10/2 46/11/2 45/12/2
f 59/13/3 50/14/3 85/15/3 86/16/3
f 3/17/4 7/18/4 5/19/4 1/20/4
f 8/21/5 4/22/5 74/23/5 2/24/5 6/25/5 83/26/5 81/27/5
f 11/28/4 9/29/4 13/30/4 15/31/4
f 4/32/4 74/33/4 73/34/4 12/35/4
f 3/17/4 1/20/4 9/29/4 11/28/4
f 3/17/4 11/28/4 25/36/4 21/37/4
f 16/38/3 12/39/3 63/40/3 64/41/3
f 15/31/4 19/42/4 29/43/4 27/44/4
f 10/45/5 73/46/5 12/47/5 16/48/5 14/49/5
f 17/50/1 18/1/1 20/51/1 19/52/1
f 18/1/1 17/50/1 39/53/1 40/2/1
f 14/54/4 18/33/4 20/55/4 16/56/4
f 15/31/4 13/30/4 17/57/4 19/42/4
f 21/58/2 22/59/2 24/10/2 23/9/2
f 22/59/2 21/58/2 25/60/2 26/61/2
f 28/62/2 27/63/2 29/64/2 30/65/2
f 26/61/2 25/60/2 27/63/2 28/62/2
f 44/66/6 46/67/6 72/68/6 71/69/6 91/70/6
f 10/71/2 78/72/2 77/73/2 2/74/2
f 19/52/1 20/51/1 30/75/1 29/76/1
f 7/18/4 3/17/4 21/37/4 23/77/4
f 46/11/2 24/10/2 67/78/2 72/79/2
f 11/28/4 15/31/4 27/44/4 25/36/4
f 31/80/3 32/81/3 36/82/3 35/83/3
f 33/84/3 34/85/3 32/81/3 31/80/3
f 35/83/3 36/82/3 38/86/3 37/87/3
f 37/87/3 38/86/3 40/88/3 39/89/3
f 1/20/4 5/19/4 33/90/4 31/91/4
f 9/29/4 1/20/4 31/91/4 35/92/4
f 40/88/3 38/86/3 57/93/3 58/94/3
f 13/30/4 9/29/4 35/92/4 37/95/4
f 34/85/3 48/96/3 60/97/3 55/98/3
f 17/57/4 13/30/4 37/95/4 39/99/4
f 43/100/6 44/66/6 82/101/6 84/102/6 42/103/6 41/104/6
f 41/104/6 42/103/6 48/105/6 47/106/6
f 44/66/6 43/100/6 45/107/6 46/67/6
f 34/85/3 33/84/3 47/108/3 48/96/3
f 7/18/4 23/77/4 45/109/4 43/110/4
f 5/19/4 7/18/4 43/110/4 41/111/4
f 33/90/4 5/19/4 41/111/4 47/112/4
f 4/113/3 8/114/3 92/115/3 62/116/3 61/117/3
f 51/118/5 52/119/5 57/120/5 56/121/5
f 49/122/5 51/118/5 56/121/5 54/123/5
f 50/124/5 55/125/5 60/126/5 59/127/5
f 52/119/5 53/128/5 58/129/5 57/120/5
f 50/124/5 49/122/5 54/123/5 55/125/5
f 10/71/2 14/130/2 52/131/2 51/132/2 78/72/2
f 36/82/3 32/81/3 54/133/3 56/134/3
f 14/135/3 52/136/3 53/137/3 18/138/3
f 38/86/3 36/82/3 56/134/3 57/93/3
f 6/139/2 2/74/2 77/73/2 49/140/2 50/141/2 85/142/2
f 48/105/6 42/103/6 86/143/6 59/144/6 60/145/6
f 32/81/3 34/85/3 55/98/3 54/133/3
f 64/146/5 63/147/5 68/148/5 69/149/5
f 61/150/5 62/151/5 67/152/5 66/153/5
f 65/154/5 64/146/5 69/149/5 70/155/5
f 63/147/5 61/150/5 66/153/5 68/148/5
f 67/152/5 62/151/5 71/156/5 72/157/5
f 30/75/1 20/51/1 65/158/1 70/159/1
f 22/59/2 26/61/2 68/160/2 66/161/2
f 28/62/2 30/65/2 70/155/2 69/149/2
f 24/10/2 22/59/2 66/161/2 67/78/2
f 26/61/2 28/62/2 69/149/2 68/160/2
f 92/162/2 62/163/2 71/164/2 91/165/2
f 12/166/2 63/167/2 61/168/2 4/169/2
f 14/170/6 16/171/6 64/172/6 52/173/6
f 53/4/1 65/158/1 20/51/1 18/1/1
f 64/146/5 65/154/5 53/128/5 52/119/5
f 2/24/5 74/23/5 73/46/5 10/45/5
f 73/174/3 74/175/3 80/176/3 79/177/3
f 76/178/5 61/150/5 63/147/5 75/179/5
f 74/180/6 4/169/6 61/168/6 76/181/6 80/182/6
f 75/183/1 63/172/1 12/171/1 73/184/1 79/185/1
f 79/186/4 80/187/4 77/188/4 78/189/4
f 78/190/1 51/191/1 75/183/1 79/185/1
f 80/182/6 76/181/6 49/38/6 77/192/6
f 49/122/5 76/178/5 75/179/5 51/118/5
f 92/162/2 91/165/2 44/193/2 8/194/2
f 42/195/3 86/16/3 85/15/3 6/196/3
f 84/197/2 83/198/2 87/199/2 88/176/2
f 88/200/6 86/143/6 42/103/6 84/102/6
f 83/201/1 6/196/1 85/15/1 87/202/1
f 82/203/3 90/204/3 89/205/3 81/206/3
f 87/207/4 89/208/4 90/209/4 88/177/4
f 90/210/6 82/101/6 44/66/6 91/70/6
f 8/194/1 81/211/1 89/212/1 92/162/1
f 89/212/1 87/202/1 85/15/1 50/14/1 62/163/1 92/162/1
f 59/144/6 86/143/6 88/200/6 90/210/6 91/70/6 71/69/6
f 71/156/5 62/151/5 50/124/5 59/127/5
f 83/26/5 84/213/5 82/214/5 81/27/5
o roof
v -2.032166 1.117495 -0.001284
v -2.032166 0.782299 -1.047032
v -2.032166 0.794647 -1.049370
v 1.049374 1.117495 -0.001284
v 1.049374 0.782299 -1.047032
v 1.049374 0.794647 -1.049370
v -2.032166 1.105146 -0.001284
v -2.032166 0.781879 1.047255
v -2.032166 0.794227 1.049593
v 1.049374 1.105146 -0.001284
v 1.049374 0.781879 1.047255
v 1.049374 0.794227 1.049593
v 1.024550 0.782299 -1.047032
v 1.024550 1.105146 -0.001284
v 1.024550 0.781879 1.047255
v -2.021764 0.782299 -1.047032
v -2.021764 1.105146 -0.001284
v -2.021764 0.781879 1.047255
vn -1.0000 -0.0000 -0.0000
vn -0.0000 -0.1860 -0.9826
vn 1.0000 -0.0000 -0.0000
vn -0.0000 -0.9555 0.2950
vn -0.0000 0.9557 -0.2944
vn -0.0000 -0.1860 0.9825
vn -0.0000 -0.0000 1.0000
vn -0.0000 -0.9556 -0.2946
vn -0.0000 0.9558 0.2940
vn -0.0000 0.9556 0.2946
vn -0.0000 0.9555 -0.2950
vn -0.0000 -1.0000 -0.0002
vn -0.0000 1.0000 0.0002
vt 2.028945 -0.510589
vt 2.017851 -0.510591
vt 2.308084 -1.452124
vt 2.319177 -1.450022
vt 2.643002 1.316303
vt 2.631711 1.316303
vt 2.631711 -1.452125
vt 2.643002 -1.452125
vt 2.017851 0.435667
vt 2.028945 0.433565
vt 2.319177 1.375098
vt 2.308084 1.375100
vt 1.036955 1.316303
vt 0.173706 1.316303
vt 0.173706 1.306958
vt 1.036955 1.306958
vt 0.173706 -1.452125
vt 1.036955 -1.452124
vt -1.674634 1.316303
vt -1.674634 -1.452124
vt -0.809228 -1.452124
vt -0.809228 1.316303
vt 2.319177 0.431467
vt 2.308083 0.433565
vt 2.654243 -1.452125
vt 2.654243 1.316303
vt 2.643002 1.316303
vt 2.643002 -1.452125
vt 2.017852 2.317156
vt 2.028946 2.319254
vt 2.665289 1.316303
vt 2.654243 1.316303
vt 2.654243 -1.452125
vt 2.665289 -1.452125
vt 2.017851 1.316303
vt 2.017851 -1.452124
vt 0.173706 1.316303
vt 0.173706 -1.452124
vt 2.609409 -0.588776
vt 2.631711 -0.588776
vt 2.631711 0.392099
vt 2.609409 0.392099
vt 2.609409 -1.452124
vt 2.609409 0.429364
vt 2.319177 -0.512691
vt 2.631711 -1.452124
vt 2.631711 2.236244
vt 2.609409 2.236244
vt 2.319177 2.315053
vt 2.319177 0.433565
vt 2.609409 1.372997
vt 2.674634 -1.452124
vt 2.674634 0.392099
vt 2.665289 0.392099
vt 2.665289 -1.452124
vt 2.017851 1.306958
s 0
usemtl Material.001
f 99/215/7 93/216/7 95/217/7 94/218/7
f 94/219/8 95/220/8 98/221/8 97/222/8
f 97/223/9 98/224/9 96/225/9 102/226/9
f 99/227/10 94/228/10 108/229/10 109/230/10
f 94/228/10 97/231/10 102/232/10 99/227/10
f 98/233/11 95/234/11 93/235/11 96/236/11
f 99/215/7 100/237/7 101/238/7 93/216/7
f 100/239/12 103/240/12 104/241/12 101/242/12
f 103/243/9 102/226/9 96/225/9 104/244/9
f 102/245/13 96/246/13 93/247/13 99/248/13
f 100/249/14 99/227/14 102/232/14 103/250/14
f 104/251/15 96/236/15 93/235/15 101/252/15
f 102/253/16 106/254/16 107/255/16 103/256/16
f 105/257/7 107/258/7 106/259/7
f 97/257/17 105/260/17 106/254/17 102/253/17
f 103/261/18 107/262/18 105/256/18 97/255/18
f 110/263/9 108/264/9 109/265/9
f 94/266/19 100/267/19 110/268/19 108/269/19
f 100/249/14 99/227/14 109/230/14 110/270/14
f 97/223/9 102/226/9 103/243/9
f 100/237/7 99/215/7 94/218/7
o doorframe
v 1.000000 0.041355 0.616692
v 1.000000 0.651257 0.616692
v 1.000000 0.041355 0.256573
v 1.000000 0.651257 0.256573
v 1.049374 0.041355 0.616692
v 1.049374 0.651257 0.616692
v 1.049374 0.041355 0.256573
v 1.049374 0.651257 0.256573
v 1.049374 0.041355 0.588892
v 1.049374 0.041355 0.284374
v 1.000000 0.041355 0.284374
v 1.000000 0.041355 0.588892
v 1.049374 0.630644 0.588892
v 1.049374 0.630644 0.284374
v 1.000000 0.630644 0.284374
v 1.000000 0.630644 0.588892
vn -0.0000 -0.0000 -1.0000
vn -0.0000 -0.0000 1.0000
vn -0.0000 -1.0000 -0.0000
vn -0.0000 1.0000 -0.0000
vn 1.0000 -0.0000 -0.0000
vn -1.0000 -0.0000 -0.0000
vt 0.818300 0.639196
vt 0.818300 0.002043
vt 0.869881 0.002043
vt 0.869881 0.639196
vt 0.762634 0.639196
vt 0.762634 0.002043
vt 0.814214 0.002043
vt 0.814214 0.639196
vt 0.086752 0.643282
vt 0.086752 0.694863
vt 0.057709 0.694863
vt 0.057709 0.643282
vt 0.925547 0.997957
vt 0.873967 0.997957
vt 0.873967 0.621748
vt 0.925547 0.621748
vt 0.119881 0.643282
vt 0.119881 0.694863
vt 0.090838 0.694863
vt 0.090838 0.643282
vt 0.031086 0.023578
vt 0.031086 0.639196
vt 0.002043 0.639196
vt 0.002043 0.002043
vt 0.053623 0.643282
vt 0.053623 0.961406
vt 0.002043 0.961406
vt 0.002043 0.643282
vt 0.378252 0.002043
vt 0.349210 0.023578
vt 0.925547 0.617662
vt 0.873967 0.617662
vt 0.873967 0.002043
vt 0.925547 0.002043
vt 0.981213 0.617662
vt 0.929633 0.617662
vt 0.929633 0.002043
vt 0.981213 0.002043
vt 0.378252 0.639196
vt 0.349210 0.639196
vt 0.758548 0.002043
vt 0.758548 0.639196
vt 0.729505 0.639196
vt 0.729505 0.023578
vt 0.382338 0.002043
vt 0.411381 0.023578
vt 0.382338 0.639196
vt 0.411381 0.639196
s 0
usemtl DoorFrame
f 113/271/20 114/272/20 118/273/20 117/274/20
f 115/275/21 116/276/21 112/277/21 111/278/21
f 122/279/22 119/280/22 115/281/22 111/282/22
f 118/283/23 114/284/23 112/285/23 116/286/23
f 113/287/22 117/288/22 120/289/22 121/290/22
f 124/291/24 120/292/24 117/293/24 118/294/24
f 126/295/22 125/296/22 124/297/22 123/298/22
f 124/291/24 118/294/24 116/299/24 123/300/24
f 121/301/21 120/302/21 124/303/21 125/304/21
f 119/305/20 122/306/20 126/307/20 123/308/20
f 123/300/24 116/299/24 115/309/24 119/310/24
f 114/311/25 113/312/25 121/313/25 125/314/25
f 112/315/25 114/311/25 125/314/25 126/316/25
f 111/317/25 112/315/25 126/316/25 122/318/25
o doorframe.001
v -1.031230 0.041355 1.000000
v -1.031230 0.651257 1.000000
v -1.031230 0.041355 0.639881
v -1.031230 0.651257 0.639881
v -1.000000 0.041355 1.000000
v -1.000000 0.651257 1.000000
v -1.000000 0.041355 0.639881
v -1.000000 0.651257 0.639881
v -1.000000 0.041355 0.972199
v -1.000000 0.041355 0.667682
v -1.031230 0.041355 0.667682
v -1.031230 0.041355 0.972199
v -1.000000 0.630644 0.972199
v -1.000000 0.630644 0.667682
v -1.031230 0.630644 0.667682
v -1.031230 0.630644 0.972199
vn -0.0000 -0.0000 -1.0000
vn -0.0000 -0.0000 1.0000
vn -0.0000 -1.0000 -0.0000
vn -0.0000 1.0000 -0.0000
vn 1.0000 -0.0000 -0.0000
vn -1.0000 -0.0000 -0.0000
vt 0.847842 0.682560
vt 0.847842 0.001818
vt 0.882699 0.001818
vt 0.882699 0.682560
vt 0.403765 0.682560
vt 0.403765 0.001818
vt 0.438622 0.001818
vt 0.438622 0.682561
vt 0.067514 0.686197
vt 0.067514 0.721055
vt 0.036484 0.721055
vt 0.036484 0.686197
vt 0.998182 0.403765
vt 0.963324 0.403765
vt 0.963324 0.001818
vt 0.998182 0.001818
vt 0.032848 0.686197
vt 0.032848 0.721054
vt 0.001818 0.721054
vt 0.001818 0.686197
vt 0.032848 0.024826
vt 0.032848 0.682560
vt 0.001818 0.682560
vt 0.001818 0.001818
vt 0.998182 0.407401
vt 0.998182 0.747289
vt 0.963324 0.747289
vt 0.963324 0.407401
vt 0.372735 0.024826
vt 0.921194 0.659553
vt 0.886336 0.659553
vt 0.886336 0.001818
vt 0.921194 0.001818
vt 0.959688 0.659553
vt 0.924830 0.659553
vt 0.924830 0.001818
vt 0.959688 0.001818
vt 0.372735 0.682560
vt 0.844205 0.001818
vt 0.844205 0.682560
vt 0.813176 0.682560
vt 0.813176 0.024826
vt 0.442259 0.001818
vt 0.473288 0.024826
vt 0.442259 0.682560
vt 0.473288 0.682560
s 0
usemtl DoorFrame
f 129/319/26 130/320/26 134/321/26 133/322/26
f 131/323/27 132/324/27 128/325/27 127/326/27
f 138/327/28 135/328/28 131/329/28 127/330/28
f 134/331/29 130/332/29 128/333/29 132/334/29
f 129/335/28 133/336/28 136/337/28 137/338/28
f 140/339/30 136/340/30 133/341/30 134/342/30
f 142/343/28 141/344/28 140/345/28 139/346/28
f 140/339/30 134/342/30 132/324/30 139/347/30
f 137/348/27 136/349/27 140/350/27 141/351/27
f 135/352/26 138/353/26 142/354/26 139/355/26
f 139/347/30 132/324/30 131/323/30 135/356/30
f 130/357/31 129/358/31 137/359/31 141/360/31
f 128/361/31 130/357/31 141/360/31 142/362/31
f 127/363/31 128/361/31 142/362/31 138/364/31
o doorBody
v 1.000000 0.041355 0.588892
v 1.000000 0.630644 0.588892
v 1.000000 0.041355 0.284374
v 1.000000 0.630644 0.284374
v 1.049374 0.041355 0.588892
v 1.049374 0.630644 0.588892
v 1.049374 0.041355 0.284374
v 1.049374 0.630644 0.284374
vn -1.0000 -0.0000 -0.0000
vn -0.0000 -0.0000 -1.0000
vn 1.0000 -0.0000 -0.0000
vn -0.0000 -0.0000 1.0000
vn -0.0000 -1.0000 -0.0000
vn -0.0000 1.0000 -0.0000
vt 0.192918 0.624825
vt 0.192918 0.153961
vt 0.436240 0.153961
vt 0.436240 0.624825
vt 0.725887 0.624825
vt 0.725887 0.153961
vt 0.765339 0.153961
vt 0.765339 0.624825
vt 0.438531 0.624825
vt 0.438531 0.153961
vt 0.681853 0.153961
vt 0.681853 0.624825
vt 0.684144 0.624825
vt 0.684144 0.153961
vt 0.723596 0.153961
vt 0.723596 0.624825
vt 0.807082 0.397282
vt 0.767630 0.397282
vt 0.767630 0.153961
vt 0.807082 0.153961
vt 0.807082 0.642895
vt 0.767630 0.642895
vt 0.767630 0.399573
vt 0.807082 0.399573
s 0
usemtl Door_Body
f 143/365/32 144/366/32 146/367/32 145/368/32
f 145/369/33 146/370/33 150/371/33 149/372/33
f 149/373/34 150/374/34 148/375/34 147/376/34
f 147/377/35 148/378/35 144/379/35 143/380/35
f 145/381/36 149/382/36 147/383/36 143/384/36
f 150/385/37 146/386/37 144/387/37 148/388/37
o Cylinder
v 0.992090 0.377895 0.299768
v 1.055039 0.377895 0.299768
v 0.992090 0.367041 0.301927
v 1.055039 0.367041 0.301927
v 0.992090 0.357840 0.308075
v 1.055039 0.357840 0.308075
v 0.992090 0.351692 0.317276
v 1.055039 0.351692 0.317276
v 0.992090 0.349534 0.328129
v 1.055039 0.349534 0.328129
v 0.992090 0.351692 0.338982
v 1.055039 0.351692 0.338982
v 0.992090 0.357840 0.348183
v 1.055039 0.357840 0.348183
v 0.992090 0.367041 0.354331
v 1.055039 0.367041 0.354331
v 0.992090 0.377895 0.356490
v 1.055039 0.377895 0.356490
v 0.992090 0.388748 0.354331
v 1.055039 0.388748 0.354331
v 0.992090 0.397949 0.348183
v 1.055039 0.397949 0.348183
v 0.992090 0.404097 0.338982
v 1.055039 0.404097 0.338982
v 0.992090 0.406256 0.328129
v 1.055039 0.406256 0.328129
v 0.992090 0.404097 0.317276
v 1.055039 0.404097 0.317276
v 0.992090 0.397949 0.308075
v 1.055039 0.397949 0.308075
v 0.992090 0.388748 0.301927
v 1.055039 0.388748 0.301927
vn -0.0000 -0.1951 -0.9808
vn -0.0000 -0.5556 -0.8315
vn -0.0000 -0.8315 -0.5556
vn -0.0000 -0.9808 -0.1951
vn -0.0000 -0.9808 0.1951
vn -0.0000 -0.8315 0.5556
vn -0.0000 -0.5556 0.8315
vn -0.0000 -0.1951 0.9808
vn -0.0000 0.1951 0.9808
vn -0.0000 0.5556 0.8315
vn -0.0000 0.8315 0.5556
vn -0.0000 0.9808 0.1951
vn -0.0000 0.9808 -0.1951
vn -0.0000 0.8315 -0.5556
vn 1.0000 -0.0000 -0.0000
vn -0.0000 0.5556 -0.8315
vn -0.0000 0.1951 -0.9808
vn -1.0000 -0.0000 -0.0000
vt 0.555133 0.464127
vt 0.555133 0.333191
vt 0.578151 0.333191
vt 0.578151 0.464127
vt 0.599417 0.333191
vt 0.599417 0.464127
vt 0.351359 0.464127
vt 0.351359 0.333191
vt 0.372625 0.333191
vt 0.372625 0.464127
vt 0.395643 0.333191
vt 0.395643 0.464127
vt 0.416909 0.333191
vt 0.416909 0.464127
vt 0.433185 0.333191
vt 0.433185 0.464127
vt 0.516301 0.333191
vt 0.516301 0.464127
vt 0.495035 0.464127
vt 0.495035 0.333191
vt 0.472017 0.464127
vt 0.472017 0.333191
vt 0.450752 0.464127
vt 0.450752 0.333191
vt 0.434476 0.464127
vt 0.434476 0.333191
vt 0.600708 0.464127
vt 0.600708 0.333191
vt 0.616984 0.333191
vt 0.616984 0.464127
vt 0.638250 0.333191
vt 0.638250 0.464127
vt 0.661268 0.333191
vt 0.661268 0.464127
vt 0.682533 0.333191
vt 0.682533 0.464127
vt 0.443284 0.241266
vt 0.459560 0.224990
vt 0.480826 0.216182
vt 0.503844 0.216182
vt 0.525109 0.224990
vt 0.541385 0.241266
vt 0.550194 0.262532
vt 0.550194 0.285550
vt 0.541385 0.306816
vt 0.525109 0.323092
vt 0.503844 0.331900
vt 0.480826 0.331900
vt 0.459560 0.323092
vt 0.443284 0.306816
vt 0.434476 0.285550
vt 0.434476 0.262532
vt 0.517592 0.464127
vt 0.517592 0.333191
vt 0.533868 0.333191
vt 0.533868 0.464127
vt 0.408100 0.224990
vt 0.424376 0.241266
vt 0.433185 0.262532
vt 0.433185 0.285550
vt 0.424376 0.306815
vt 0.408100 0.323092
vt 0.386834 0.331900
vt 0.363816 0.331900
vt 0.342551 0.323092
vt 0.326275 0.306816
vt 0.317466 0.285550
vt 0.317466 0.262532
vt 0.326275 0.241266
vt 0.342551 0.224990
vt 0.363816 0.216182
vt 0.386834 0.216182
s 0
usemtl Ghar
f 151/389/38 152/390/38 154/391/38 153/392/38
f 153/392/39 154/391/39 156/393/39 155/394/39
f 155/395/40 156/396/40 158/397/40 157/398/40
f 157/398/41 158/397/41 160/399/41 159/400/41
f 159/400/42 160/399/42 162/401/42 161/402/42
f 161/402/43 162/401/43 164/403/43 163/404/43
f 163/405/44 164/406/44 166/407/44 165/408/44
f 165/408/45 166/407/45 168/409/45 167/410/45
f 167/410/46 168/409/46 170/411/46 169/412/46
f 169/412/47 170/411/47 172/413/47 171/414/47
f 171/415/48 172/416/48 174/417/48 173/418/48
f 173/418/49 174/417/49 176/419/49 175/420/49
f 175/420/50 176/419/50 178/421/50 177/422/50
f 177/422/51 178/421/51 180/423/51 179/424/51
f 154/425/52 152/426/52 182/427/52 180/428/52 178/429/52 176/430/52 174/431/52 172/432/52 170/433/52 168/434/52 166/435/52 164/436/52 162/437/52 160/438/52 158/439/52 156/440/52
f 179/441/53 180/442/53 182/443/53 181/444/53
f 181/444/54 182/443/54 152/390/54 151/389/54
f 151/445/55 153/446/55 155/447/55 157/448/55 159/449/55 161/450/55 163/451/55 165/452/55 167/453/55 169/454/55 171/455/55 173/456/55 175/457/55 177/458/55 179/459/55 181/460/55
