# Blender 4.1.1
# www.blender.org
mtllib grasschunk.mtl
o Plane.013
v 1.845205 -0.431609 -0.588802
v 2.058295 -0.431609 -0.299920
v 1.358138 1.568391 -1.249112
v 2.545362 1.568391 0.360390
v 1.831547 -0.431609 -0.607040
v 2.124465 -0.431609 -0.814547
v 1.162012 1.568391 -0.132733
v 2.794000 1.568391 -1.288854
v 2.103672 -0.431609 -0.785435
v 2.369485 -0.431609 -0.544181
v 1.496092 1.568391 -1.336879
v 2.977066 1.568391 0.007263
v 2.335806 -0.431609 -0.553730
v 2.101845 -0.431609 -0.281476
v 2.870582 1.568391 -1.176032
v 1.567071 1.568392 0.340826
v 1.424543 -0.299046 0.884746
v 1.781638 -0.299046 0.921391
v 0.608315 1.700954 0.800986
v 2.597867 1.700955 1.005151
v 1.401860 -0.299046 0.882584
v 1.445350 -0.299046 0.526258
v 1.302453 1.700954 1.697055
v 1.544758 1.700954 -0.288213
v 1.452905 -0.299046 0.561226
v 1.810223 -0.299046 0.526820
v 0.636168 1.700954 0.639870
v 2.626961 1.700954 0.448177
v 1.780503 -0.299046 0.545318
v 1.824581 -0.299046 0.901572
v 1.679754 1.700954 -0.268988
v 1.925331 1.700955 1.715878
v 2.322993 -0.140212 1.875170
v 2.625619 -0.140212 2.068244
v 1.631268 1.859788 1.433852
v 3.317343 1.859788 2.509562
v 2.303696 -0.140212 1.863054
v 2.502541 -0.140212 1.564189
v 1.849186 1.859788 2.546183
v 2.957051 1.859788 0.881060
v 2.493592 -0.140212 1.598827
v 2.828317 -0.140212 1.728514
v 1.728495 1.859788 1.302395
v 3.593414 1.859788 2.024946
v 2.793456 -0.140212 1.731699
v 2.672888 -0.140212 2.069816
v 3.069044 1.859788 0.958849
v 2.397300 1.859789 2.842665
v -0.007901 -0.299046 0.478219
v 0.322885 -0.299045 0.617646
v -0.763994 1.700955 0.159522
v 1.078978 1.700955 0.936343
v -0.028961 -0.299046 0.469521
v 0.116788 -0.299046 0.141470
v -0.362107 1.700954 1.219359
v 0.449934 1.700955 -0.608368
v 0.113792 -0.299046 0.177120
v 0.465560 -0.299046 0.248665
v -0.690261 1.700954 0.013586
v 1.269613 1.700955 0.412200
v 0.431731 -0.299046 0.257668
v 0.369745 -0.299045 0.611246
v 0.573415 1.700954 -0.550522
v 0.228063 1.700955 1.419435
v 0.321100 -0.431608 2.137292
v 0.554070 -0.431608 2.410394
v -0.211409 1.568391 1.513049
v 1.086578 1.568391 3.034637
v 0.306188 -0.431609 2.120064
v 0.583710 -0.431609 1.892378
v -0.328159 1.568391 2.640497
v 1.218056 1.568391 1.371946
v 0.565026 -0.431609 1.922887
v 0.847222 -0.431609 2.144755
v -0.080001 1.568391 1.415754
v 1.492250 1.568391 2.651887
v 0.812953 -0.431609 2.137610
v 0.598815 -0.431608 2.425715
v 1.302418 1.568391 1.479074
v 0.109350 1.568392 3.084250
v -1.270777 -0.302120 0.104877
v -0.950670 -0.302120 0.267331
v -2.002461 1.697880 -0.266449
v -0.218987 1.697880 0.638658
v -1.291170 -0.302120 0.094713
v -1.122604 -0.302120 -0.222218
v -1.676469 1.697880 0.819137
v -0.737305 1.697880 -0.946642
v -1.128112 -0.302120 -0.186869
v -0.782279 -0.302120 -0.090646
v -1.918600 1.697880 -0.406811
v 0.008209 1.697880 0.129296
v -0.816659 -0.302121 -0.084056
v -0.903475 -0.302120 0.264258
v -0.618222 1.697879 -0.880215
v -1.101912 1.697880 1.060415
v -1.037073 -0.431609 1.969325
v -0.823983 -0.431609 2.258207
v -1.524140 1.568392 1.309014
v -0.336916 1.568392 2.918517
v -1.050731 -0.431609 1.951086
v -0.757813 -0.431609 1.743579
v -1.720266 1.568391 2.425393
v -0.088278 1.568391 1.269272
v -0.778606 -0.431609 1.772692
v -0.512793 -0.431609 2.013946
v -1.386186 1.568391 1.221248
v 0.094788 1.568391 2.565389
v -0.546472 -0.431609 2.004397
v -0.780433 -0.431609 2.276651
v -0.011696 1.568391 1.382094
v -1.315207 1.568392 2.898953
v -2.963268 -0.299045 0.285853
v -2.704629 -0.299045 0.534782
v -3.554449 1.700954 -0.283137
v -2.113447 1.700954 1.103771
v -2.979798 -0.299046 0.270171
v -2.725952 -0.299046 0.016357
v -3.560027 1.700954 0.850326
v -2.145723 1.700954 -0.563798
v -2.741552 -0.299046 0.048551
v -2.438951 -0.299046 0.241664
v -3.433221 1.700954 -0.392854
v -1.747282 1.700955 0.683069
v -2.473756 -0.299046 0.237916
v -2.658597 -0.299045 0.545639
v -2.051258 1.700954 -0.465463
v -3.081094 1.700955 1.249016
v -2.388284 -0.431608 1.518370
v -2.268946 -0.431608 1.856923
v -2.661060 1.568391 0.744524
v -1.996170 1.568391 2.630769
v -2.396014 -0.431609 1.496935
v -2.055233 -0.431609 1.384116
v -3.174952 1.568391 1.754812
v -1.276295 1.568391 1.126239
v -2.083628 -0.431609 1.405879
v -1.899946 -0.431609 1.714296
v -2.503476 1.568391 0.700916
v -1.480098 1.568391 2.419258
v -1.929363 -0.431609 1.695319
v -2.232689 -0.431608 1.887292
v -1.236038 1.568391 1.256520
v -2.926014 1.568392 2.326092
v -1.068984 -0.299045 -1.935919
v -0.748877 -0.299045 -1.773466
v -1.800668 1.700954 -2.307246
v -0.017193 1.700955 -1.402139
v -1.089377 -0.299046 -1.946084
v -0.920811 -0.299046 -2.263015
v -1.474675 1.700954 -1.221660
v -0.535512 1.700954 -2.987438
v -0.926319 -0.299046 -2.227666
v -0.580486 -0.299046 -2.131443
v -1.716807 1.700954 -2.447608
v 0.210002 1.700955 -1.911501
v -0.614866 -0.299046 -2.124853
v -0.701681 -0.299045 -1.776539
v -0.416428 1.700954 -2.921012
v -0.900119 1.700955 -0.980382
v -1.245261 -0.431609 -0.942524
v -1.032172 -0.431609 -0.653642
v -1.732329 1.568391 -1.602834
v -0.545105 1.568391 0.006668
v -1.258920 -0.431609 -0.960763
v -0.966002 -0.431609 -1.168269
v -1.928455 1.568391 -0.486455
v -0.296467 1.568391 -1.642576
v -0.986795 -0.431609 -1.139157
v -0.720982 -0.431609 -0.897903
v -1.594375 1.568391 -1.690601
v -0.113401 1.568391 -0.346459
v -0.754661 -0.431609 -0.907452
v -0.988622 -0.431609 -0.635198
v -0.219885 1.568391 -1.529754
v -1.523396 1.568392 -0.012896
v -2.449481 -0.007649 -2.503363
v -2.190842 -0.007649 -2.254434
v -3.040663 1.992351 -3.072353
v -1.599661 1.992351 -1.685445
v -2.466012 -0.007649 -2.519045
v -2.212165 -0.007649 -2.772860
v -3.046240 1.992351 -1.938890
v -1.631937 1.992351 -3.353014
v -2.227766 -0.007649 -2.740665
v -1.925164 -0.007649 -2.547553
v -2.919434 1.992351 -3.182070
v -1.233495 1.992351 -2.106147
v -1.959970 -0.007649 -2.551301
v -2.144810 -0.007649 -2.243577
v -1.537472 1.992351 -3.254679
v -2.567307 1.992352 -1.540200
v -2.775491 -0.431609 -0.998601
v -2.656153 -0.431609 -0.660048
v -3.048267 1.568392 -1.772448
v -2.383377 1.568392 0.113798
v -2.783221 -0.431609 -1.020036
v -2.442440 -0.431609 -1.132855
v -3.562159 1.568391 -0.762159
v -1.663502 1.568391 -1.390732
v -2.470834 -0.431609 -1.111092
v -2.287153 -0.431609 -0.802675
v -2.890683 1.568391 -1.816055
v -1.867305 1.568391 -0.097713
v -2.316570 -0.431609 -0.821652
v -2.619896 -0.431609 -0.629679
v -1.623245 1.568391 -1.260452
v -3.313220 1.568392 -0.190879
v 1.589673 -0.299046 -1.981699
v 1.909780 -0.299045 -1.819245
v 0.857989 1.700955 -2.353026
v 2.641464 1.700955 -1.447919
v 1.569280 -0.299046 -1.991863
v 1.737846 -0.299046 -2.308794
v 1.183982 1.700954 -1.267440
v 2.123145 1.700955 -3.033218
v 1.732338 -0.299046 -2.273446
v 2.078172 -0.299046 -2.177222
v 0.941851 1.700954 -2.493387
v 2.868659 1.700955 -1.957281
v 2.043791 -0.299046 -2.170633
v 1.956976 -0.299045 -1.822318
v 2.242229 1.700954 -2.966791
v 1.758538 1.700955 -1.026161
v 0.285591 -0.593517 -2.849137
v 0.544230 -0.593517 -2.600208
v -0.305590 1.406483 -3.418126
v 1.135412 1.406483 -2.031219
v 0.269060 -0.593517 -2.864819
v 0.522907 -0.593517 -3.118633
v -0.311168 1.406483 -2.284664
v 1.103135 1.406483 -3.698788
v 0.507306 -0.593517 -3.086438
v 0.809908 -0.593517 -2.893326
v -0.184363 1.406483 -3.527844
v 1.501577 1.406483 -2.451921
v 0.775102 -0.593517 -2.897074
v 0.590262 -0.593517 -2.589350
v 1.197600 1.406482 -3.600453
v 0.167765 1.406483 -1.885973
v 0.024649 -0.726080 -1.471946
v 0.143987 -0.726080 -1.133392
v -0.248127 1.273920 -2.245792
v 0.416763 1.273920 -0.359546
v 0.016919 -0.726080 -1.493380
v 0.357700 -0.726080 -1.606199
v -0.762019 1.273920 -1.235503
v 1.136638 1.273920 -1.864076
v 0.329305 -0.726080 -1.584436
v 0.512986 -0.726080 -1.276019
v -0.090544 1.273920 -2.289399
v 0.932835 1.273920 -0.571057
v 0.483569 -0.726080 -1.294996
v 0.180244 -0.726080 -1.103023
v 1.176895 1.273919 -1.733796
v -0.513080 1.273920 -0.664224
vn -0.8048 -0.0000 0.5936
vn -0.5781 -0.0000 -0.8160
vn 0.6721 -0.0000 -0.7405
vn 0.7584 -0.0000 0.6518
vn -0.1021 -0.0000 0.9948
vn -0.9926 -0.0000 -0.1212
vn -0.0958 -0.0000 -0.9954
vn 0.9924 -0.0000 -0.1228
vn -0.5379 -0.0000 0.8430
vn -0.8326 -0.0000 -0.5539
vn 0.3613 -0.0000 -0.9325
vn 0.9419 -0.0000 0.3359
vn -0.3884 -0.0000 0.9215
vn -0.9139 -0.0000 -0.4060
vn 0.1993 -0.0000 -0.9799
vn 0.9850 -0.0000 0.1727
vn -0.7608 -0.0000 0.6490
vn -0.6343 -0.0000 -0.7731
vn 0.6181 -0.0000 -0.7861
vn 0.8026 -0.0000 0.5965
vn -0.4526 -0.0000 0.8917
vn -0.8829 -0.0000 -0.4696
vn 0.2681 -0.0000 -0.9634
vn 0.9703 -0.0000 0.2418
vn -0.6935 -0.0000 0.7205
vn -0.7071 -0.0000 -0.7072
vn 0.5380 -0.0000 -0.8430
vn 0.8572 -0.0000 0.5149
vn -0.9431 -0.0000 0.3324
vn -0.3143 -0.0000 -0.9493
vn 0.8592 -0.0000 -0.5117
vn 0.5348 -0.0000 0.8450
vt 0.413718 0.005184
vt 0.580639 0.005184
vt 0.962179 0.870084
vt 0.032179 0.870084
s 0
usemtl gras
f 1/1/1 2/2/1 4/3/1 3/4/1
f 5/1/2 7/4/2 8/3/2 6/2/2
f 9/1/3 11/4/3 12/3/3 10/2/3
f 13/1/4 15/4/4 16/3/4 14/2/4
f 17/1/5 18/2/5 20/3/5 19/4/5
f 21/1/6 23/4/6 24/3/6 22/2/6
f 25/1/7 27/4/7 28/3/7 26/2/7
f 29/1/8 31/4/8 32/3/8 30/2/8
f 33/1/9 34/2/9 36/3/9 35/4/9
f 37/1/10 39/4/10 40/3/10 38/2/10
f 41/1/11 43/4/11 44/3/11 42/2/11
f 45/1/12 47/4/12 48/3/12 46/2/12
f 49/1/13 50/2/13 52/3/13 51/4/13
f 53/1/14 55/4/14 56/3/14 54/2/14
f 57/1/15 59/4/15 60/3/15 58/2/15
f 61/1/16 63/4/16 64/3/16 62/2/16
f 65/1/17 66/2/17 68/3/17 67/4/17
f 69/1/18 71/4/18 72/3/18 70/2/18
f 73/1/19 75/4/19 76/3/19 74/2/19
f 77/1/20 79/4/20 80/3/20 78/2/20
f 81/1/21 82/2/21 84/3/21 83/4/21
f 85/1/22 87/4/22 88/3/22 86/2/22
f 89/1/23 91/4/23 92/3/23 90/2/23
f 93/1/24 95/4/24 96/3/24 94/2/24
f 97/1/1 98/2/1 100/3/1 99/4/1
f 101/1/2 103/4/2 104/3/2 102/2/2
f 105/1/3 107/4/3 108/3/3 106/2/3
f 109/1/4 111/4/4 112/3/4 110/2/4
f 113/1/25 114/2/25 116/3/25 115/4/25
f 117/1/26 119/4/26 120/3/26 118/2/26
f 121/1/27 123/4/27 124/3/27 122/2/27
f 125/1/28 127/4/28 128/3/28 126/2/28
f 129/1/29 130/2/29 132/3/29 131/4/29
f 133/1/30 135/4/30 136/3/30 134/2/30
f 137/1/31 139/4/31 140/3/31 138/2/31
f 141/1/32 143/4/32 144/3/32 142/2/32
f 145/1/21 146/2/21 148/3/21 147/4/21
f 149/1/22 151/4/22 152/3/22 150/2/22
f 153/1/23 155/4/23 156/3/23 154/2/23
f 157/1/24 159/4/24 160/3/24 158/2/24
f 161/1/1 162/2/1 164/3/1 163/4/1
f 165/1/2 167/4/2 168/3/2 166/2/2
f 169/1/3 171/4/3 172/3/3 170/2/3
f 173/1/4 175/4/4 176/3/4 174/2/4
f 177/1/25 178/2/25 180/3/25 179/4/25
f 181/1/26 183/4/26 184/3/26 182/2/26
f 185/1/27 187/4/27 188/3/27 186/2/27
f 189/1/28 191/4/28 192/3/28 190/2/28
f 193/1/29 194/2/29 196/3/29 195/4/29
f 197/1/30 199/4/30 200/3/30 198/2/30
f 201/1/31 203/4/31 204/3/31 202/2/31
f 205/1/32 207/4/32 208/3/32 206/2/32
f 209/1/21 210/2/21 212/3/21 211/4/21
f 213/1/22 215/4/22 216/3/22 214/2/22
f 217/1/23 219/4/23 220/3/23 218/2/23
f 221/1/24 223/4/24 224/3/24 222/2/24
f 225/1/25 226/2/25 228/3/25 227/4/25
f 229/1/26 231/4/26 232/3/26 230/2/26
f 233/1/27 235/4/27 236/3/27 234/2/27
f 237/1/28 239/4/28 240/3/28 238/2/28
f 241/1/29 242/2/29 244/3/29 243/4/29
f 245/1/30 247/4/30 248/3/30 246/2/30
f 249/1/31 251/4/31 252/3/31 250/2/31
f 253/1/32 255/4/32 256/3/32 254/2/32
