# Blender 4.1.1
# www.blender.org
mtllib grass.mtl
o Plane
v -0.178548 -0.004917 -0.018322
v 0.178548 -0.004917 0.018322
v -0.994776 1.995083 -0.102083
v 0.994776 1.995083 0.102083
v -0.201230 -0.004917 -0.020484
v -0.157740 -0.004917 -0.376811
v -0.300638 1.995083 0.793986
v -0.058333 1.995083 -1.191282
v -0.150185 -0.004917 -0.341842
v 0.207133 -0.004917 -0.376248
v -0.966922 1.995083 -0.263198
v 1.023870 1.995083 -0.454892
v 0.177413 -0.004917 -0.357750
v 0.221490 -0.004917 -0.001496
v 0.076663 1.995082 -1.172057
v 0.322240 1.995083 0.812809
vn -0.1021 -0.0000 0.9948
vn -0.9926 -0.0000 -0.1212
vn -0.0958 -0.0000 -0.9954
vn 0.9924 -0.0000 -0.1228
vt 0.413718 0.005184
vt 0.580639 0.005184
vt 0.962179 0.870084
vt 0.032179 0.870084
s 0
usemtl gras
f 1/1/1 2/2/1 4/3/1 3/4/1
f 5/1/2 7/4/2 8/3/2 6/2/2
f 9/1/3 11/4/3 12/3/3 10/2/3
f 13/1/4 15/4/4 16/3/4 14/2/4
